<svg width="34" height="34" viewBox="0 0 34 34" fill="none" xmlns="http://www.w3.org/2000/svg">
<path d="M23.6963 13.05C23.3135 13.05 22.9635 12.8336 22.7925 12.491L23.6963 13.05ZM23.6963 13.05H31.4139C32.1643 13.05 32.6528 12.2606 32.3176 11.589C32.3176 11.589 32.3176 11.5889 32.3176 11.5889L28.3977 3.73416L23.6963 13.05ZM16.8751 29.7974C16.8751 30.7421 15.6941 31.1695 15.0893 30.4442L16.8751 29.7974ZM16.8751 29.7974V14.31C16.8751 13.7522 16.4229 13.3 15.8651 13.3H2.95143C2.09493 13.3 1.62726 14.2991 2.17571 14.9568C2.17571 14.9568 2.17571 14.9568 2.17571 14.9568L15.0893 30.4442L16.8751 29.7974ZM18.1369 3.73263L18.1369 3.73255C17.9656 3.39079 17.6161 3.175 17.2339 3.175H16.7662C16.384 3.175 16.0345 3.39081 15.8633 3.73255L15.8632 3.73263L11.9282 11.5876C11.5918 12.2592 12.08 13.05 12.8313 13.05H21.1689C21.9198 13.05 22.4084 12.2594 22.0719 11.5876C22.0719 11.5876 22.0719 11.5876 22.0718 11.5875L18.1369 3.73263ZM13.7164 12.4834L13.717 12.4822C13.7168 12.4826 13.7166 12.483 13.7164 12.4834L13.7164 12.4834ZM17.2339 4.175C17.2377 4.175 17.2411 4.17714 17.2428 4.18052L16.4408 4.81225L16.349 4.62893C16.3781 4.68694 16.4124 4.74124 16.4513 4.79138L16.5946 4.50533L16.3488 4.6285L16.3487 4.62842L16.5946 4.50524L16.7573 4.18052C16.759 4.17714 16.7625 4.175 16.7662 4.175H17.2339ZM15.1276 4.636L15.1276 4.63599C15.4627 3.96454 14.9744 3.175 14.2239 3.175H6.50625C6.12342 3.175 5.77349 3.39145 5.60254 3.73401C5.60254 3.73401 5.60254 3.73401 5.60254 3.73401L1.68252 11.589C1.34742 12.2605 1.83573 13.05 2.58623 13.05H10.3039C10.6867 13.05 11.0366 12.8336 11.2076 12.491C11.2076 12.491 11.2076 12.491 11.2076 12.4909L15.1276 4.636ZM3.47205 12.4821L2.60627 12.05L3.47206 12.4821L3.47239 12.4814C3.47228 12.4816 3.47217 12.4818 3.47205 12.4821ZM18.8726 4.63609L22.7925 12.4908L28.3976 3.73401C28.2266 3.39128 27.8765 3.175 27.4939 3.175H19.7762C19.0258 3.175 18.5374 3.96442 18.8725 4.636C18.8725 4.63603 18.8726 4.63606 18.8726 4.63609ZM31.8244 14.9568C32.3729 14.299 31.9051 13.3 31.0487 13.3H18.1351C17.5773 13.3 17.1251 13.7522 17.1251 14.31V29.7974C17.1251 30.742 18.306 31.1695 18.9108 30.4442C18.9108 30.4442 18.9108 30.4442 18.9108 30.4442L31.8244 14.9568L31.0564 14.3164L31.8244 14.9568Z" fill="url(#paint0_linear_9_157)" stroke="black" stroke-width="2"/>
<defs>
<linearGradient id="paint0_linear_9_157" x1="17.0001" y1="4.175" x2="17.0001" y2="29.825" gradientUnits="userSpaceOnUse">
<stop stop-color="#38BDF8"/>
<stop offset="1" stop-color="#3365E3"/>
</linearGradient>
</defs>
</svg>
