<svg width="48" height="48" viewBox="0 0 48 48" fill="none" xmlns="http://www.w3.org/2000/svg">
<rect width="48" height="48" rx="24" fill="black"/>
<path d="M24.24 12.175H23.76L19.815 20.05H28.185L24.24 12.175Z" fill="url(#paint0_linear_122_2208)"/>
<path d="M30.69 20.05H38.43L34.5 12.175H26.76L30.69 20.05Z" fill="url(#paint1_linear_122_2208)"/>
<path d="M38.07 22.3H25.125V37.825L38.07 22.3Z" fill="url(#paint2_linear_122_2208)"/>
<path d="M22.875 37.825V22.3H9.93001L22.875 37.825Z" fill="url(#paint3_linear_122_2208)"/>
<path d="M17.31 20.05L21.24 12.175H13.5L9.57001 20.05H17.31Z" fill="url(#paint4_linear_122_2208)"/>
<defs>
<linearGradient id="paint0_linear_122_2208" x1="24" y1="12.175" x2="24" y2="37.8251" gradientUnits="userSpaceOnUse">
<stop offset="0.0001" stop-color="#E879F9"/>
<stop offset="1" stop-color="#CF364C"/>
</linearGradient>
<linearGradient id="paint1_linear_122_2208" x1="24" y1="12.175" x2="24" y2="37.8251" gradientUnits="userSpaceOnUse">
<stop offset="0.0001" stop-color="#E879F9"/>
<stop offset="1" stop-color="#CF364C"/>
</linearGradient>
<linearGradient id="paint2_linear_122_2208" x1="24" y1="12.175" x2="24" y2="37.8251" gradientUnits="userSpaceOnUse">
<stop offset="0.0001" stop-color="#E879F9"/>
<stop offset="1" stop-color="#CF364C"/>
</linearGradient>
<linearGradient id="paint3_linear_122_2208" x1="24" y1="12.175" x2="24" y2="37.8251" gradientUnits="userSpaceOnUse">
<stop offset="0.0001" stop-color="#E879F9"/>
<stop offset="1" stop-color="#CF364C"/>
</linearGradient>
<linearGradient id="paint4_linear_122_2208" x1="24" y1="12.175" x2="24" y2="37.8251" gradientUnits="userSpaceOnUse">
<stop offset="0.0001" stop-color="#E879F9"/>
<stop offset="1" stop-color="#CF364C"/>
</linearGradient>
</defs>
</svg>
