<svg width="34" height="36" viewBox="0 0 34 36" fill="none" xmlns="http://www.w3.org/2000/svg">
<path d="M15.5 2.86603C16.4282 2.33013 17.5718 2.33013 18.5 2.86603L30.2224 9.63398C31.1506 10.1699 31.7224 11.1603 31.7224 12.2321V25.768C31.7224 26.8397 31.1506 27.8301 30.2224 28.366L18.5 35.134C17.5718 35.6699 16.4282 35.6699 15.5 35.134L3.77757 28.366C2.84936 27.8301 2.27757 26.8397 2.27757 25.768V12.232C2.27757 11.1603 2.84936 10.1699 3.77757 9.63397L15.5 2.86603Z" fill="black"/>
<path d="M16 1.73205C16.6188 1.37479 17.3812 1.37479 18 1.73205L29.7224 8.5C30.3412 8.85727 30.7224 9.51752 30.7224 10.2321V23.768C30.7224 24.4825 30.3412 25.1427 29.7224 25.5L18 32.268C17.3812 32.6252 16.6188 32.6252 16 32.2679L4.27757 25.5C3.65877 25.1427 3.27757 24.4825 3.27757 23.768V10.232C3.27757 9.51752 3.65877 8.85727 4.27757 8.5L16 1.73205Z" fill="#37BDF8" stroke="black" stroke-width="2"/>
<g clip-path="url(#clip0_9_134)">
<path d="M14 21.5833C14.3167 22 14.5 22.5167 14.5 23.0833C14.5 24.4667 13.3833 25.5833 12 25.5833C10.6167 25.5833 9.5 24.4667 9.5 23.0833C9.5 21.7 10.6167 20.5833 12 20.5833C12.3667 20.5833 12.7083 20.6583 13.025 20.8L14.2 19.325C13.4333 18.4667 13.125 17.3333 13.2917 16.25L11.6 15.6833C11.15 16.375 10.3833 16.8333 9.5 16.8333C8.11667 16.8333 7 15.7167 7 14.3333C7 12.95 8.11667 11.8333 9.5 11.8333C10.8833 11.8333 12 12.95 12 14.3333C12 14.3917 12 14.45 11.9917 14.5083L13.6833 15.075C14.2167 14.0667 15.2 13.3333 16.3667 13.1417V11.3417C15.3 11.0583 14.5 10.0833 14.5 8.91666C14.5 7.53333 15.6167 6.41666 17 6.41666C18.3833 6.41666 19.5 7.53333 19.5 8.91666C19.5 10.0833 18.7 11.0583 17.625 11.3417V13.1417C18.7917 13.3333 19.775 14.0667 20.3083 15.075L22 14.5083C22 14.45 22 14.3917 22 14.3333C22 12.95 23.1167 11.8333 24.5 11.8333C25.8833 11.8333 27 12.95 27 14.3333C27 15.7167 25.8833 16.8333 24.5 16.8333C23.6167 16.8333 22.85 16.375 22.4 15.6917L20.7083 16.2583C20.875 17.3333 20.575 18.4667 19.8 19.3333L20.975 20.8083C21.2917 20.6583 21.6333 20.5833 22 20.5833C23.3833 20.5833 24.5 21.7 24.5 23.0833C24.5 24.4667 23.3833 25.5833 22 25.5833C20.6167 25.5833 19.5 24.4667 19.5 23.0833C19.5 22.5167 19.6833 22 20 21.5833L18.825 20.1083C17.7 20.7333 16.3167 20.7417 15.1833 20.1083L14 21.5833Z" fill="black"/>
</g>
<defs>
<clipPath id="clip0_9_134">
<rect width="20" height="20" fill="white" transform="translate(7 6)"/>
</clipPath>
</defs>
</svg>
