<svg width="34" height="36" viewBox="0 0 34 36" fill="none" xmlns="http://www.w3.org/2000/svg">
<path d="M15.5 2.86603C16.4282 2.33013 17.5718 2.33013 18.5 2.86603L30.2224 9.63398C31.1506 10.1699 31.7224 11.1603 31.7224 12.2321V25.768C31.7224 26.8397 31.1506 27.8301 30.2224 28.366L18.5 35.134C17.5718 35.6699 16.4282 35.6699 15.5 35.134L3.77757 28.366C2.84936 27.8301 2.27757 26.8397 2.27757 25.768V12.232C2.27757 11.1603 2.84936 10.1699 3.77757 9.63397L15.5 2.86603Z" fill="black"/>
<path d="M16 1.73205C16.6188 1.37479 17.3812 1.37479 18 1.73205L29.7224 8.5C30.3412 8.85727 30.7224 9.51752 30.7224 10.2321V23.768C30.7224 24.4825 30.3412 25.1427 29.7224 25.5L18 32.268C17.3812 32.6252 16.6188 32.6252 16 32.2679L4.27757 25.5C3.65877 25.1427 3.27757 24.4825 3.27757 23.768V10.232C3.27757 9.51752 3.65877 8.85727 4.27757 8.5L16 1.73205Z" fill="#9CA2AD" stroke="black" stroke-width="2"/>
<path d="M17.0615 24.179C16.107 24.179 15.259 24.0064 14.5175 23.6612C13.776 23.3161 13.1901 22.8409 12.7597 22.2358C12.3335 21.6307 12.1119 20.9361 12.0949 20.152H15.1631C15.1887 20.6335 15.3847 21.0213 15.7512 21.3153C16.1176 21.6051 16.5544 21.75 17.0615 21.75C17.4578 21.75 17.8094 21.6626 18.1162 21.4879C18.423 21.3132 18.6638 21.0682 18.8385 20.7528C19.0132 20.4332 19.0985 20.0668 19.0942 19.6534C19.0985 19.2315 19.0111 18.8629 18.8321 18.5476C18.6574 18.2322 18.4145 17.9872 18.1034 17.8125C17.7966 17.6335 17.4429 17.544 17.0423 17.544C16.6631 17.5398 16.303 17.6229 15.9621 17.7933C15.6254 17.9638 15.3698 18.196 15.195 18.4901L12.4017 17.9659L12.9706 10.9091H21.3698V13.4595H15.5722L15.2718 16.5469H15.3485C15.5658 16.1847 15.9152 15.8864 16.3968 15.652C16.8825 15.4134 17.4344 15.294 18.0523 15.294C18.8364 15.294 19.5352 15.4773 20.1489 15.8438C20.7668 16.206 21.2526 16.7088 21.6063 17.3523C21.9642 17.9957 22.1432 18.733 22.1432 19.5639C22.1432 20.4631 21.9301 21.2599 21.504 21.9545C21.0821 22.6491 20.4898 23.1946 19.727 23.5909C18.9685 23.983 18.08 24.179 17.0615 24.179Z" fill="#040711"/>
</svg>
