<svg width="34" height="36" viewBox="0 0 34 36" fill="none" xmlns="http://www.w3.org/2000/svg">
<path d="M15.5 2.86603C16.4282 2.33013 17.5718 2.33013 18.5 2.86603L30.2224 9.63398C31.1506 10.1699 31.7224 11.1603 31.7224 12.2321V25.768C31.7224 26.8397 31.1506 27.8301 30.2224 28.366L18.5 35.134C17.5718 35.6699 16.4282 35.6699 15.5 35.134L3.77757 28.366C2.84936 27.8301 2.27757 26.8397 2.27757 25.768V12.232C2.27757 11.1603 2.84936 10.1699 3.77757 9.63397L15.5 2.86603Z" fill="black"/>
<path d="M16 1.73205C16.6188 1.37479 17.3812 1.37479 18 1.73205L29.7224 8.5C30.3412 8.85727 30.7224 9.51752 30.7224 10.2321V23.768C30.7224 24.4825 30.3412 25.1427 29.7224 25.5L18 32.268C17.3812 32.6252 16.6188 32.6252 16 32.2679L4.27757 25.5C3.65877 25.1427 3.27757 24.4825 3.27757 23.768V10.232C3.27757 9.51752 3.65877 8.85727 4.27757 8.5L16 1.73205Z" fill="#9CA2AD" stroke="black" stroke-width="2"/>
<path d="M16.9968 24.179C15.9783 24.179 15.0685 24.017 14.2674 23.6932C13.4705 23.3651 12.8441 22.9219 12.3881 22.3636C11.9364 21.8011 11.7106 21.1662 11.7106 20.4588C11.7106 19.9176 11.8406 19.4212 12.1005 18.9695C12.3604 18.5178 12.712 18.1428 13.1552 17.8445C13.6026 17.5419 14.1012 17.348 14.6509 17.2628V17.1605C13.9308 17.0284 13.3406 16.6939 12.8803 16.157C12.4244 15.62 12.1964 14.9915 12.1964 14.2713C12.1964 13.5895 12.4031 12.9822 12.8164 12.4496C13.234 11.9169 13.8029 11.4972 14.5231 11.1903C15.2475 10.8835 16.0721 10.7301 16.9968 10.7301C17.9215 10.7301 18.744 10.8835 19.4641 11.1903C20.1886 11.4972 20.7575 11.9169 21.1708 12.4496C21.5884 12.9822 21.7972 13.5895 21.7972 14.2713C21.7972 14.9957 21.565 15.6264 21.1005 16.1634C20.6403 16.696 20.0543 17.0284 19.3427 17.1605V17.2628C19.8881 17.348 20.3825 17.5419 20.8256 17.8445C21.2731 18.1428 21.6268 18.5178 21.8867 18.9695C22.1509 19.4212 22.283 19.9176 22.283 20.4588C22.283 21.1662 22.055 21.8011 21.5991 22.3636C21.1431 22.9219 20.5167 23.3651 19.7198 23.6932C18.9272 24.017 18.0195 24.179 16.9968 24.179ZM16.9968 21.9354C17.3846 21.9354 17.7255 21.8629 18.0195 21.718C18.3136 21.5689 18.5437 21.3622 18.7099 21.098C18.8803 20.8338 18.9656 20.5355 18.9656 20.2031C18.9656 19.8622 18.8803 19.5597 18.7099 19.2955C18.5394 19.0312 18.305 18.8246 18.0067 18.6754C17.7127 18.522 17.3761 18.4453 16.9968 18.4453C16.6218 18.4453 16.2852 18.522 15.9869 18.6754C15.6886 18.8246 15.4542 19.0312 15.2837 19.2955C15.1133 19.5597 15.0281 19.8622 15.0281 20.2031C15.0281 20.5355 15.1112 20.8338 15.2773 21.098C15.4478 21.358 15.68 21.5625 15.9741 21.7116C16.2724 21.8608 16.6133 21.9354 16.9968 21.9354ZM16.9968 16.2145C17.3292 16.2145 17.6232 16.1463 17.8789 16.0099C18.1388 15.8736 18.3413 15.6839 18.4862 15.4411C18.6353 15.1982 18.7099 14.9233 18.7099 14.6165C18.7099 14.3097 18.6353 14.0391 18.4862 13.8047C18.3413 13.5703 18.141 13.3871 17.8853 13.255C17.6296 13.1186 17.3335 13.0504 16.9968 13.0504C16.6644 13.0504 16.3683 13.1186 16.1083 13.255C15.8484 13.3871 15.646 13.5703 15.5011 13.8047C15.3562 14.0391 15.2837 14.3097 15.2837 14.6165C15.2837 14.9233 15.3562 15.1982 15.5011 15.4411C15.6502 15.6797 15.8548 15.8693 16.1147 16.0099C16.3746 16.1463 16.6687 16.2145 16.9968 16.2145Z" fill="#040711"/>
</svg>
