<svg width="34" height="36" viewBox="0 0 34 36" fill="none" xmlns="http://www.w3.org/2000/svg">
<path d="M15.5 2.86603C16.4282 2.33013 17.5718 2.33013 18.5 2.86603L30.2224 9.63398C31.1506 10.1699 31.7224 11.1603 31.7224 12.2321V25.768C31.7224 26.8397 31.1506 27.8301 30.2224 28.366L18.5 35.134C17.5718 35.6699 16.4282 35.6699 15.5 35.134L3.77757 28.366C2.84936 27.8301 2.27757 26.8397 2.27757 25.768V12.232C2.27757 11.1603 2.84936 10.1699 3.77757 9.63397L15.5 2.86603Z" fill="black"/>
<path d="M16 1.73205C16.6188 1.37479 17.3812 1.37479 18 1.73205L29.7224 8.5C30.3412 8.85727 30.7224 9.51752 30.7224 10.2321V23.768C30.7224 24.4825 30.3412 25.1427 29.7224 25.5L18 32.268C17.3812 32.6252 16.6188 32.6252 16 32.2679L4.27757 25.5C3.65877 25.1427 3.27757 24.4825 3.27757 23.768V10.232C3.27757 9.51752 3.65877 8.85727 4.27757 8.5L16 1.73205Z" fill="#FACC15" stroke="black" stroke-width="2"/>
<path d="M22.5834 17.3333C22.3501 17.2 22.1084 17.0917 21.8667 17C22.1084 16.9083 22.3501 16.8 22.5834 16.6667C24.1834 15.7417 25.0751 14.0667 25.0834 12.3417C23.5917 11.4833 21.6917 11.4167 20.0834 12.3417C19.8501 12.475 19.6334 12.6333 19.4334 12.7917C19.4751 12.5333 19.5001 12.2667 19.5001 12C19.5001 10.15 18.4917 8.54167 17.0001 7.675C15.5084 8.54167 14.5001 10.15 14.5001 12C14.5001 12.2667 14.5251 12.5333 14.5667 12.7917C14.3667 12.625 14.1501 12.4667 13.9167 12.3333C12.3167 11.4083 10.4167 11.475 8.91675 12.3333C8.91675 14.0583 9.80841 15.7333 11.4167 16.6583C11.6501 16.7917 11.8917 16.9 12.1334 16.9917C11.8917 17.0833 11.6501 17.1917 11.4167 17.325C9.81675 18.25 8.92508 19.925 8.91675 21.65C10.4084 22.5083 12.3084 22.575 13.9167 21.65C14.1501 21.5167 14.3667 21.3583 14.5667 21.2C14.5251 21.4667 14.5001 21.7333 14.5001 22C14.5001 23.85 15.5084 25.4583 17.0001 26.325C18.4917 25.4583 19.5001 23.85 19.5001 22C19.5001 21.7333 19.4751 21.4667 19.4334 21.2083C19.6334 21.375 19.8501 21.525 20.0834 21.6583C21.6834 22.5833 23.5834 22.5167 25.0834 21.6583C25.0751 19.9333 24.1834 18.2583 22.5834 17.3333Z" fill="black"/>
</svg>
