<svg width="34" height="36" viewBox="0 0 34 36" fill="none" xmlns="http://www.w3.org/2000/svg">
<path d="M15.5 2.86603C16.4282 2.33013 17.5718 2.33013 18.5 2.86603L30.2224 9.63398C31.1506 10.1699 31.7224 11.1603 31.7224 12.2321V25.768C31.7224 26.8397 31.1506 27.8301 30.2224 28.366L18.5 35.134C17.5718 35.6699 16.4282 35.6699 15.5 35.134L3.77757 28.366C2.84936 27.8301 2.27757 26.8397 2.27757 25.768V12.232C2.27757 11.1603 2.84936 10.1699 3.77757 9.63397L15.5 2.86603Z" fill="black"/>
<path d="M16 1.73205C16.6188 1.37479 17.3812 1.37479 18 1.73205L29.7224 8.5C30.3412 8.85727 30.7224 9.51752 30.7224 10.2321V23.768C30.7224 24.4825 30.3412 25.1427 29.7224 25.5L18 32.268C17.3812 32.6252 16.6188 32.6252 16 32.2679L4.27757 25.5C3.65877 25.1427 3.27757 24.4825 3.27757 23.768V10.232C3.27757 9.51752 3.65877 8.85727 4.27757 8.5L16 1.73205Z" fill="#9CA2AD" stroke="black" stroke-width="2"/>
<path d="M17.1574 24.179C16.4415 24.179 15.7554 24.0639 15.0992 23.8338C14.4429 23.5994 13.8591 23.2287 13.3477 22.7216C12.8364 22.2102 12.4337 21.5412 12.1396 20.7145C11.8456 19.8835 11.7007 18.8714 11.705 17.6783C11.7093 16.6001 11.8414 15.6328 12.1013 14.7763C12.3612 13.9155 12.732 13.1847 13.2135 12.5838C13.6993 11.983 14.2789 11.5249 14.9521 11.2095C15.6297 10.8899 16.3861 10.7301 17.2213 10.7301C18.1375 10.7301 18.945 10.9091 19.6439 11.267C20.347 11.6207 20.9095 12.098 21.3314 12.6989C21.7533 13.2955 22.0026 13.9602 22.0793 14.6932H18.9664C18.8726 14.2798 18.6659 13.9666 18.3463 13.7536C18.031 13.5362 17.656 13.4276 17.2213 13.4276C16.4202 13.4276 15.8215 13.7749 15.4252 14.4695C15.0331 15.1641 14.8328 16.093 14.8243 17.2564H14.9074C15.0864 16.8643 15.3442 16.5277 15.6808 16.2464C16.0175 15.9652 16.4031 15.75 16.8378 15.6009C17.2767 15.4474 17.7412 15.3707 18.2313 15.3707C19.0154 15.3707 19.7078 15.5518 20.3087 15.9141C20.9095 16.2763 21.3804 16.7727 21.7213 17.4034C22.0622 18.0298 22.2306 18.7479 22.2263 19.5575C22.2306 20.4695 22.0175 21.2749 21.5871 21.9737C21.1567 22.6683 20.5601 23.2095 19.7973 23.5973C19.0388 23.9851 18.1588 24.179 17.1574 24.179ZM17.1382 21.75C17.526 21.75 17.8733 21.6584 18.1801 21.4751C18.4869 21.2919 18.7277 21.0426 18.9024 20.7273C19.0771 20.4119 19.1624 20.0561 19.1581 19.6598C19.1624 19.2592 19.0771 18.9034 18.9024 18.5923C18.732 18.2812 18.4933 18.0341 18.1865 17.8509C17.884 17.6676 17.5367 17.576 17.1446 17.576C16.8591 17.576 16.5928 17.6293 16.3456 17.7358C16.0985 17.8423 15.8833 17.9915 15.7 18.1832C15.521 18.3707 15.3804 18.5923 15.2781 18.848C15.1759 19.0994 15.1226 19.3722 15.1183 19.6662C15.1226 20.054 15.2121 20.4055 15.3868 20.7209C15.5615 21.0362 15.8002 21.2876 16.1027 21.4751C16.4053 21.6584 16.7504 21.75 17.1382 21.75Z" fill="#040711"/>
</svg>
