<svg width="34" height="36" viewBox="0 0 34 36" fill="none" xmlns="http://www.w3.org/2000/svg">
<path d="M15.5 2.86603C16.4282 2.33013 17.5718 2.33013 18.5 2.86603L30.2224 9.63398C31.1506 10.1699 31.7224 11.1603 31.7224 12.2321V25.768C31.7224 26.8397 31.1506 27.8301 30.2224 28.366L18.5 35.134C17.5718 35.6699 16.4282 35.6699 15.5 35.134L3.77757 28.366C2.84936 27.8301 2.27757 26.8397 2.27757 25.768V12.232C2.27757 11.1603 2.84936 10.1699 3.77757 9.63397L15.5 2.86603Z" fill="black"/>
<path d="M16 1.73205C16.6188 1.37479 17.3812 1.37479 18 1.73205L29.7224 8.5C30.3412 8.85727 30.7224 9.51752 30.7224 10.2321V23.768C30.7224 24.4825 30.3412 25.1427 29.7224 25.5L18 32.268C17.3812 32.6252 16.6188 32.6252 16 32.2679L4.27757 25.5C3.65877 25.1427 3.27757 24.4825 3.27757 23.768V10.232C3.27757 9.51752 3.65877 8.85727 4.27757 8.5L16 1.73205Z" fill="#9CA2AD" stroke="black" stroke-width="2"/>
<path d="M16.8378 10.7301C17.5537 10.7301 18.2377 10.8473 18.8896 11.0817C19.5416 11.3118 20.1233 11.6804 20.6347 12.1875C21.146 12.6903 21.5487 13.353 21.8428 14.1754C22.1368 14.9979 22.2838 16.0014 22.2838 17.1861C22.2881 18.277 22.1602 19.255 21.9003 20.12C21.6404 20.9808 21.2675 21.7138 20.7817 22.3189C20.3002 22.924 19.7206 23.3864 19.0431 23.706C18.3655 24.0213 17.6091 24.179 16.7739 24.179C15.8534 24.179 15.0416 24.0021 14.3385 23.6484C13.6396 23.2905 13.0793 22.8089 12.6574 22.2038C12.2398 21.5987 11.9905 20.9212 11.9095 20.1712H15.0225C15.1205 20.6058 15.3271 20.9339 15.6425 21.1555C15.9578 21.3729 16.335 21.4815 16.7739 21.4815C17.575 21.4815 18.1737 21.1342 18.57 20.4396C18.9664 19.745 19.1645 18.8011 19.1645 17.608H19.0878C18.9046 18 18.6446 18.3366 18.308 18.6179C17.9756 18.8991 17.5899 19.1143 17.151 19.2635C16.7121 19.4126 16.2497 19.4872 15.7639 19.4872C14.9798 19.4872 14.2874 19.3082 13.6865 18.9503C13.0899 18.5923 12.6212 18.1001 12.2803 17.4737C11.9436 16.8473 11.7732 16.1314 11.7689 15.326C11.7646 14.4226 11.9756 13.6257 12.4017 12.9354C12.8279 12.2408 13.4223 11.6996 14.1851 11.3118C14.9479 10.9197 15.8321 10.7259 16.8378 10.7301ZM16.857 13.1591C16.4649 13.1591 16.1155 13.2507 15.8087 13.4339C15.5061 13.6172 15.2675 13.8643 15.0928 14.1754C14.9181 14.4865 14.8328 14.8359 14.8371 15.2237C14.8414 15.6115 14.9287 15.9609 15.0992 16.272C15.2739 16.5831 15.5104 16.8303 15.8087 17.0135C16.1112 17.1967 16.4564 17.2884 16.8442 17.2884C17.134 17.2884 17.4024 17.2351 17.6496 17.1286C17.8968 17.022 18.1119 16.875 18.2952 16.6875C18.4784 16.4957 18.6212 16.2741 18.7235 16.0227C18.83 15.7713 18.8811 15.5028 18.8769 15.2173C18.8726 14.8381 18.7831 14.4929 18.6084 14.1818C18.4337 13.8707 18.1929 13.6236 17.8861 13.4403C17.5835 13.2528 17.2405 13.1591 16.857 13.1591Z" fill="#040711"/>
</svg>
