<svg width="34" height="36" viewBox="0 0 34 36" fill="none" xmlns="http://www.w3.org/2000/svg">
<path d="M15.5 2.86603C16.4282 2.33013 17.5718 2.33013 18.5 2.86603L30.2224 9.63398C31.1506 10.1699 31.7224 11.1603 31.7224 12.2321V25.768C31.7224 26.8397 31.1506 27.8301 30.2224 28.366L18.5 35.134C17.5718 35.6699 16.4282 35.6699 15.5 35.134L3.77757 28.366C2.84936 27.8301 2.27757 26.8397 2.27757 25.768V12.232C2.27757 11.1603 2.84936 10.1699 3.77757 9.63397L15.5 2.86603Z" fill="black"/>
<path d="M16 1.73205C16.6188 1.37479 17.3812 1.37479 18 1.73205L29.7224 8.5C30.3412 8.85727 30.7224 9.51752 30.7224 10.2321V23.768C30.7224 24.4825 30.3412 25.1427 29.7224 25.5L18 32.268C17.3812 32.6252 16.6188 32.6252 16 32.2679L4.27757 25.5C3.65877 25.1427 3.27757 24.4825 3.27757 23.768V10.232C3.27757 9.51752 3.65877 8.85727 4.27757 8.5L16 1.73205Z" fill="#9CA2AD" stroke="black" stroke-width="2"/>
<path d="M13.614 10.9091V24H10.4563V13.8622H10.3796L7.45204 15.652V12.9162L10.68 10.9091H13.614ZM21.022 24.3196C19.88 24.3196 18.8956 24.049 18.0689 23.5078C17.2422 22.9624 16.6051 22.1804 16.1577 21.1619C15.7102 20.1392 15.4887 18.9098 15.4929 17.4737C15.4972 16.0376 15.7209 14.8189 16.1641 13.8175C16.6115 12.8118 17.2465 12.0469 18.0689 11.5227C18.8956 10.9943 19.88 10.7301 21.022 10.7301C22.1641 10.7301 23.1485 10.9943 23.9752 11.5227C24.8061 12.0469 25.4453 12.8118 25.8928 13.8175C26.3402 14.8232 26.5618 16.0419 26.5575 17.4737C26.5575 18.9141 26.3338 20.1456 25.8864 21.1683C25.4389 22.1911 24.8019 22.973 23.9752 23.5142C23.1527 24.0511 22.1683 24.3196 21.022 24.3196ZM21.022 21.7308C21.7039 21.7308 22.2557 21.3835 22.6776 20.6889C23.0994 19.9901 23.3083 18.9183 23.304 17.4737C23.304 16.5277 23.2081 15.7479 23.0164 15.1342C22.8246 14.5163 22.5583 14.0561 22.2173 13.7536C21.8764 13.451 21.478 13.2997 21.022 13.2997C20.3445 13.2997 19.7969 13.6428 19.3793 14.3288C18.9617 15.0107 18.7507 16.0589 18.7465 17.4737C18.7422 18.4325 18.8338 19.2273 19.0213 19.858C19.2131 20.4886 19.4816 20.9595 19.8267 21.2706C20.1719 21.5774 20.5703 21.7308 21.022 21.7308Z" fill="#040711"/>
</svg>
