<svg width="34" height="36" viewBox="0 0 34 36" fill="none" xmlns="http://www.w3.org/2000/svg">
<path d="M15.5 2.86603C16.4282 2.33013 17.5718 2.33013 18.5 2.86603L30.2224 9.63398C31.1506 10.1699 31.7224 11.1603 31.7224 12.2321V25.768C31.7224 26.8397 31.1506 27.8301 30.2224 28.366L18.5 35.134C17.5718 35.6699 16.4282 35.6699 15.5 35.134L3.77757 28.366C2.84936 27.8301 2.27757 26.8397 2.27757 25.768V12.232C2.27757 11.1603 2.84936 10.1699 3.77757 9.63397L15.5 2.86603Z" fill="black"/>
<path d="M16 1.73205C16.6188 1.37479 17.3812 1.37479 18 1.73205L29.7224 8.5C30.3412 8.85727 30.7224 9.51752 30.7224 10.2321V23.768C30.7224 24.4825 30.3412 25.1427 29.7224 25.5L18 32.268C17.3812 32.6252 16.6188 32.6252 16 32.2679L4.27757 25.5C3.65877 25.1427 3.27757 24.4825 3.27757 23.768V10.232C3.27757 9.51752 3.65877 8.85727 4.27757 8.5L16 1.73205Z" fill="#9CA2AD" stroke="black" stroke-width="2"/>
<path d="M13.9919 10.9091V24H10.8342V13.8622H10.7575L7.82997 15.652V12.9162L11.058 10.9091H13.9919ZM20.9653 24.179C19.9681 24.179 19.0839 24.0085 18.3126 23.6676C17.5456 23.3224 16.9404 22.8473 16.4973 22.2422C16.0541 21.6371 15.8282 20.9403 15.8197 20.152H19.0029C19.0157 20.4375 19.1074 20.6911 19.2778 20.9126C19.4483 21.13 19.6805 21.3004 19.9745 21.424C20.2686 21.5476 20.6031 21.6094 20.9781 21.6094C21.3531 21.6094 21.6833 21.5433 21.9689 21.4112C22.2586 21.2749 22.4845 21.0895 22.6464 20.8551C22.8083 20.6165 22.8872 20.3437 22.8829 20.0369C22.8872 19.7301 22.7998 19.4574 22.6208 19.2188C22.4419 18.9801 22.1883 18.7947 21.8602 18.6626C21.5363 18.5305 21.1528 18.4645 20.7096 18.4645H19.4376V16.2145H20.7096C21.0974 16.2145 21.4383 16.1506 21.7324 16.0227C22.0306 15.8949 22.2629 15.7159 22.4291 15.4858C22.5953 15.2514 22.6762 14.983 22.672 14.6804C22.6762 14.3864 22.6059 14.1286 22.461 13.907C22.3204 13.6811 22.1223 13.5064 21.8666 13.3828C21.6152 13.2592 21.3233 13.1974 20.9909 13.1974C20.6414 13.1974 20.324 13.2592 20.0385 13.3828C19.7572 13.5064 19.5335 13.6811 19.3673 13.907C19.2011 14.1328 19.1137 14.3949 19.1052 14.6932H16.0818C16.0903 13.9134 16.3076 13.2273 16.7338 12.6349C17.1599 12.0384 17.7395 11.5717 18.4724 11.2351C19.2096 10.8984 20.0491 10.7301 20.9909 10.7301C21.9284 10.7301 22.7529 10.8942 23.4646 11.2223C24.1762 11.5504 24.7302 11.9979 25.1265 12.5646C25.5228 13.1271 25.721 13.7642 25.721 14.4759C25.7252 15.2131 25.4845 15.8203 24.9987 16.2976C24.5172 16.7749 23.8971 17.0689 23.1386 17.1797V17.282C24.1528 17.4013 24.9177 17.7294 25.4333 18.2663C25.9532 18.8033 26.211 19.4744 26.2068 20.2798C26.2068 21.0384 25.9831 21.7116 25.5356 22.2997C25.0924 22.8835 24.4745 23.3437 23.6819 23.6804C22.8936 24.0128 21.988 24.179 20.9653 24.179Z" fill="#040711"/>
</svg>
