<svg width="34" height="36" viewBox="0 0 34 36" fill="none" xmlns="http://www.w3.org/2000/svg">
<path d="M15.5 2.86603C16.4282 2.33013 17.5718 2.33013 18.5 2.86603L30.2224 9.63398C31.1506 10.1699 31.7224 11.1603 31.7224 12.2321V25.768C31.7224 26.8397 31.1506 27.8301 30.2224 28.366L18.5 35.134C17.5718 35.6699 16.4282 35.6699 15.5 35.134L3.77757 28.366C2.84936 27.8301 2.27757 26.8397 2.27757 25.768V12.232C2.27757 11.1603 2.84936 10.1699 3.77757 9.63397L15.5 2.86603Z" fill="black"/>
<path d="M16 1.73205C16.6188 1.37479 17.3812 1.37479 18 1.73205L29.7224 8.5C30.3412 8.85727 30.7224 9.51752 30.7224 10.2321V23.768C30.7224 24.4825 30.3412 25.1427 29.7224 25.5L18 32.268C17.3812 32.6252 16.6188 32.6252 16 32.2679L4.27757 25.5C3.65877 25.1427 3.27757 24.4825 3.27757 23.768V10.232C3.27757 9.51752 3.65877 8.85727 4.27757 8.5L16 1.73205Z" fill="#8BC031" stroke="black" stroke-width="2"/>
<path d="M17 25.75C21.1417 25.75 24.5 22.3917 24.5 18.25C20.3583 18.25 17 21.6083 17 25.75ZM11.6667 15.9583C11.6667 17.1083 12.6 18.0417 13.75 18.0417C14.1917 18.0417 14.5917 17.9083 14.9333 17.675L14.9167 17.8333C14.9167 18.9833 15.85 19.9167 17 19.9167C18.15 19.9167 19.0833 18.9833 19.0833 17.8333L19.0667 17.675C19.4 17.9083 19.8083 18.0417 20.25 18.0417C21.4 18.0417 22.3333 17.1083 22.3333 15.9583C22.3333 15.125 21.8417 14.4167 21.1417 14.0833C21.8417 13.75 22.3333 13.0417 22.3333 12.2083C22.3333 11.0583 21.4 10.125 20.25 10.125C19.8083 10.125 19.4083 10.2583 19.0667 10.4917L19.0833 10.3333C19.0833 9.18333 18.15 8.25 17 8.25C15.85 8.25 14.9167 9.18333 14.9167 10.3333L14.9333 10.4917C14.6 10.2583 14.1917 10.125 13.75 10.125C12.6 10.125 11.6667 11.0583 11.6667 12.2083C11.6667 13.0417 12.1583 13.75 12.8583 14.0833C12.1583 14.4167 11.6667 15.125 11.6667 15.9583ZM9.5 18.25C9.5 22.3917 12.8583 25.75 17 25.75C17 21.6083 13.6417 18.25 9.5 18.25Z" fill="black"/>
</svg>
