<svg width="34" height="36" viewBox="0 0 34 36" fill="none" xmlns="http://www.w3.org/2000/svg">
<path d="M15.5 2.86603C16.4282 2.33013 17.5718 2.33013 18.5 2.86603L30.2224 9.63398C31.1506 10.1699 31.7224 11.1603 31.7224 12.2321V25.768C31.7224 26.8397 31.1506 27.8301 30.2224 28.366L18.5 35.134C17.5718 35.6699 16.4282 35.6699 15.5 35.134L3.77757 28.366C2.84936 27.8301 2.27757 26.8397 2.27757 25.768V12.232C2.27757 11.1603 2.84936 10.1699 3.77757 9.63397L15.5 2.86603Z" fill="black"/>
<path d="M16 1.73205C16.6188 1.37479 17.3812 1.37479 18 1.73205L29.7224 8.5C30.3412 8.85727 30.7224 9.51752 30.7224 10.2321V23.768C30.7224 24.4825 30.3412 25.1427 29.7224 25.5L18 32.268C17.3812 32.6252 16.6188 32.6252 16 32.2679L4.27757 25.5C3.65877 25.1427 3.27757 24.4825 3.27757 23.768V10.232C3.27757 9.51752 3.65877 8.85727 4.27757 8.5L16 1.73205Z" fill="#9CA2AD" stroke="black" stroke-width="2"/>
<path d="M16.9417 24.179C15.9445 24.179 15.0603 24.0085 14.289 23.6676C13.5219 23.3224 12.9168 22.8473 12.4736 22.2422C12.0305 21.6371 11.8046 20.9403 11.7961 20.152H14.9793C14.9921 20.4375 15.0837 20.6911 15.2542 20.9126C15.4246 21.13 15.6569 21.3004 15.9509 21.424C16.2449 21.5476 16.5795 21.6094 16.9545 21.6094C17.3295 21.6094 17.6597 21.5433 17.9452 21.4112C18.235 21.2749 18.4608 21.0895 18.6228 20.8551C18.7847 20.6165 18.8635 20.3437 18.8593 20.0369C18.8635 19.7301 18.7762 19.4574 18.5972 19.2188C18.4182 18.9801 18.1647 18.7947 17.8366 18.6626C17.5127 18.5305 17.1292 18.4645 16.686 18.4645H15.414V16.2145H16.686C17.0738 16.2145 17.4147 16.1506 17.7087 16.0227C18.007 15.8949 18.2393 15.7159 18.4055 15.4858C18.5716 15.2514 18.6526 14.983 18.6483 14.6804C18.6526 14.3864 18.5823 14.1286 18.4374 13.907C18.2968 13.6811 18.0986 13.5064 17.843 13.3828C17.5915 13.2592 17.2996 13.1974 16.9672 13.1974C16.6178 13.1974 16.3003 13.2592 16.0148 13.3828C15.7336 13.5064 15.5099 13.6811 15.3437 13.907C15.1775 14.1328 15.0901 14.3949 15.0816 14.6932H12.0581C12.0667 13.9134 12.284 13.2273 12.7101 12.6349C13.1363 12.0384 13.7158 11.5717 14.4488 11.2351C15.186 10.8984 16.0255 10.7301 16.9672 10.7301C17.9047 10.7301 18.7293 10.8942 19.441 11.2223C20.1526 11.5504 20.7066 11.9979 21.1029 12.5646C21.4992 13.1271 21.6974 13.7642 21.6974 14.4759C21.7016 15.2131 21.4608 15.8203 20.9751 16.2976C20.4935 16.7749 19.8735 17.0689 19.115 17.1797V17.282C20.1292 17.4013 20.8941 17.7294 21.4097 18.2663C21.9296 18.8033 22.1874 19.4744 22.1832 20.2798C22.1832 21.0384 21.9594 21.7116 21.512 22.2997C21.0688 22.8835 20.4509 23.3437 19.6583 23.6804C18.8699 24.0128 17.9644 24.179 16.9417 24.179Z" fill="#040711"/>
</svg>
