<svg width="34" height="36" viewBox="0 0 34 36" fill="none" xmlns="http://www.w3.org/2000/svg">
<path d="M15.5 2.86603C16.4282 2.33013 17.5718 2.33013 18.5 2.86603L30.2224 9.63398C31.1506 10.1699 31.7224 11.1603 31.7224 12.2321V25.768C31.7224 26.8397 31.1506 27.8301 30.2224 28.366L18.5 35.134C17.5718 35.6699 16.4282 35.6699 15.5 35.134L3.77757 28.366C2.84936 27.8301 2.27757 26.8397 2.27757 25.768V12.232C2.27757 11.1603 2.84936 10.1699 3.77757 9.63397L15.5 2.86603Z" fill="black"/>
<path d="M16 1.73205C16.6188 1.37479 17.3812 1.37479 18 1.73205L29.7224 8.5C30.3412 8.85727 30.7224 9.51752 30.7224 10.2321V23.768C30.7224 24.4825 30.3412 25.1427 29.7224 25.5L18 32.268C17.3812 32.6252 16.6188 32.6252 16 32.2679L4.27757 25.5C3.65877 25.1427 3.27757 24.4825 3.27757 23.768V10.232C3.27757 9.51752 3.65877 8.85727 4.27757 8.5L16 1.73205Z" fill="#9CA2AD" stroke="black" stroke-width="2"/>
<path d="M12.2259 24V21.7244L17.0008 17.544C17.3588 17.2202 17.6634 16.924 17.9149 16.6555C18.1663 16.3828 18.358 16.1101 18.4901 15.8374C18.6222 15.5604 18.6883 15.2599 18.6883 14.9361C18.6883 14.5739 18.6095 14.2649 18.4518 14.0092C18.2941 13.7493 18.0768 13.549 17.7998 13.4084C17.5228 13.2678 17.2053 13.1974 16.8474 13.1974C16.4852 13.1974 16.1677 13.272 15.895 13.4212C15.6222 13.5661 15.4092 13.777 15.2558 14.054C15.1066 14.331 15.032 14.6676 15.032 15.0639H12.0342C12.0342 14.1733 12.2345 13.4041 12.635 12.7564C13.0356 12.1087 13.5981 11.6101 14.3225 11.2607C15.0512 10.907 15.8971 10.7301 16.8602 10.7301C17.8531 10.7301 18.716 10.8963 19.449 11.2287C20.1819 11.5611 20.7487 12.0256 21.1492 12.6222C21.5541 13.2145 21.7565 13.9027 21.7565 14.6868C21.7565 15.1854 21.6563 15.6797 21.4561 16.1697C21.2558 16.6598 20.8957 17.201 20.3758 17.7933C19.8602 18.3857 19.1272 19.0952 18.1769 19.9219L16.6109 21.3665V21.4496H21.9163V24H12.2259Z" fill="#040711"/>
</svg>
