<svg width="34" height="36" viewBox="0 0 34 36" fill="none" xmlns="http://www.w3.org/2000/svg">
<path d="M15.5 2.86603C16.4282 2.33013 17.5718 2.33013 18.5 2.86603L30.2224 9.63398C31.1506 10.1699 31.7224 11.1603 31.7224 12.2321V25.768C31.7224 26.8397 31.1506 27.8301 30.2224 28.366L18.5 35.134C17.5718 35.6699 16.4282 35.6699 15.5 35.134L3.77757 28.366C2.84936 27.8301 2.27757 26.8397 2.27757 25.768V12.232C2.27757 11.1603 2.84936 10.1699 3.77757 9.63397L15.5 2.86603Z" fill="black"/>
<path d="M16 1.73205C16.6188 1.37479 17.3812 1.37479 18 1.73205L29.7224 8.5C30.3412 8.85727 30.7224 9.51752 30.7224 10.2321V23.768C30.7224 24.4825 30.3412 25.1427 29.7224 25.5L18 32.268C17.3812 32.6252 16.6188 32.6252 16 32.2679L4.27757 25.5C3.65877 25.1427 3.27757 24.4825 3.27757 23.768V10.232C3.27757 9.51752 3.65877 8.85727 4.27757 8.5L16 1.73205Z" fill="#F87070" stroke="black" stroke-width="2"/>
<path d="M24.235 17.5013C22.9266 14.1013 18.2683 13.918 19.3933 8.97634C19.4766 8.60967 19.085 8.32634 18.7683 8.518C15.7433 10.3013 13.5683 13.8763 15.3933 18.5597C15.5433 18.943 15.0933 19.3013 14.7683 19.0513C13.26 17.9097 13.1016 16.268 13.235 15.093C13.285 14.6597 12.7183 14.4513 12.4766 14.8097C11.91 15.6763 11.335 17.0763 11.335 19.1847C11.6516 23.8513 15.5933 25.2847 17.01 25.468C19.035 25.7263 21.2266 25.3513 22.8016 23.9097C24.535 22.3013 25.1683 19.7347 24.235 17.5013Z" fill="#040711"/>
</svg>
