<svg width="34" height="36" viewBox="0 0 34 36" fill="none" xmlns="http://www.w3.org/2000/svg">
<path d="M15.5 2.86603C16.4282 2.33013 17.5718 2.33013 18.5 2.86603L30.2224 9.63398C31.1506 10.1699 31.7224 11.1603 31.7224 12.2321V25.768C31.7224 26.8397 31.1506 27.8301 30.2224 28.366L18.5 35.134C17.5718 35.6699 16.4282 35.6699 15.5 35.134L3.77757 28.366C2.84936 27.8301 2.27757 26.8397 2.27757 25.768V12.232C2.27757 11.1603 2.84936 10.1699 3.77757 9.63397L15.5 2.86603Z" fill="black"/>
<path d="M16 1.73205C16.6188 1.37479 17.3812 1.37479 18 1.73205L29.7224 8.5C30.3412 8.85727 30.7224 9.51752 30.7224 10.2321V23.768C30.7224 24.4825 30.3412 25.1427 29.7224 25.5L18 32.268C17.3812 32.6252 16.6188 32.6252 16 32.2679L4.27757 25.5C3.65877 25.1427 3.27757 24.4825 3.27757 23.768V10.232C3.27757 9.51752 3.65877 8.85727 4.27757 8.5L16 1.73205Z" fill="#A689FA" stroke="black" stroke-width="2"/>
<path d="M24.3058 12.1508L17 8.09L9.69417 12.1508L14.3417 14.7267C15.0108 14.03 15.955 13.59 17 13.59C18.045 13.59 18.9892 14.03 19.6583 14.7267L24.3058 12.1508ZM15.1667 17.2567C15.1667 16.2483 15.9917 15.4233 17 15.4233C18.0083 15.4233 18.8333 16.2483 18.8333 17.2567C18.8333 18.265 18.0083 19.09 17 19.09C15.9917 19.09 15.1667 18.265 15.1667 17.2567ZM16.0833 25.91L8.75 21.84V13.7183L13.4525 16.3308C13.37 16.6242 13.3333 16.9358 13.3333 17.2567C13.3333 18.9617 14.4975 20.4008 16.0833 20.8042V25.91ZM17.9167 25.91V20.8042C19.5025 20.4008 20.6667 18.9617 20.6667 17.2567C20.6667 16.9358 20.63 16.6242 20.5475 16.3308L25.25 13.7183V21.84L17.9167 25.91Z" fill="black"/>
</svg>
