<svg width="34" height="36" viewBox="0 0 34 36" fill="none" xmlns="http://www.w3.org/2000/svg">
<path d="M15.5 2.86603C16.4282 2.33013 17.5718 2.33013 18.5 2.86603L30.2224 9.63398C31.1506 10.1699 31.7224 11.1603 31.7224 12.2321V25.768C31.7224 26.8397 31.1506 27.8301 30.2224 28.366L18.5 35.134C17.5718 35.6699 16.4282 35.6699 15.5 35.134L3.77757 28.366C2.84936 27.8301 2.27757 26.8397 2.27757 25.768V12.232C2.27757 11.1603 2.84936 10.1699 3.77757 9.63397L15.5 2.86603Z" fill="black"/>
<path d="M16 1.73205C16.6188 1.37479 17.3812 1.37479 18 1.73205L29.7224 8.5C30.3412 8.85727 30.7224 9.51752 30.7224 10.2321V23.768C30.7224 24.4825 30.3412 25.1427 29.7224 25.5L18 32.268C17.3812 32.6252 16.6188 32.6252 16 32.2679L4.27757 25.5C3.65877 25.1427 3.27757 24.4825 3.27757 23.768V10.232C3.27757 9.51752 3.65877 8.85727 4.27757 8.5L16 1.73205Z" fill="#9CA2AD" stroke="black" stroke-width="2"/>
<path d="M16.9984 24.3196C15.8564 24.3196 14.872 24.049 14.0453 23.5078C13.2186 22.9624 12.5815 22.1804 12.1341 21.1619C11.6866 20.1392 11.465 18.9098 11.4693 17.4737C11.4735 16.0376 11.6973 14.8189 12.1404 13.8175C12.5879 12.8118 13.2228 12.0469 14.0453 11.5227C14.872 10.9943 15.8564 10.7301 16.9984 10.7301C18.1404 10.7301 19.1248 10.9943 19.9515 11.5227C20.7825 12.0469 21.4217 12.8118 21.8691 13.8175C22.3166 14.8232 22.5382 16.0419 22.5339 17.4737C22.5339 18.9141 22.3102 20.1456 21.8627 21.1683C21.4153 22.1911 20.7782 22.973 19.9515 23.5142C19.1291 24.0511 18.1447 24.3196 16.9984 24.3196ZM16.9984 21.7308C17.6802 21.7308 18.2321 21.3835 18.6539 20.6889C19.0758 19.9901 19.2846 18.9183 19.2804 17.4737C19.2804 16.5277 19.1845 15.7479 18.9927 15.1342C18.801 14.5163 18.5346 14.0561 18.1937 13.7536C17.8528 13.451 17.4544 13.2997 16.9984 13.2997C16.3208 13.2997 15.7733 13.6428 15.3556 14.3288C14.938 15.0107 14.7271 16.0589 14.7228 17.4737C14.7186 18.4325 14.8102 19.2273 14.9977 19.858C15.1895 20.4886 15.4579 20.9595 15.8031 21.2706C16.1483 21.5774 16.5467 21.7308 16.9984 21.7308Z" fill="#040711"/>
</svg>
