<svg width="34" height="36" viewBox="0 0 34 36" fill="none" xmlns="http://www.w3.org/2000/svg">
<path d="M15.5 2.86603C16.4282 2.33013 17.5718 2.33013 18.5 2.86603L30.2224 9.63398C31.1506 10.1699 31.7224 11.1603 31.7224 12.2321V25.768C31.7224 26.8397 31.1506 27.8301 30.2224 28.366L18.5 35.134C17.5718 35.6699 16.4282 35.6699 15.5 35.134L3.77757 28.366C2.84936 27.8301 2.27757 26.8397 2.27757 25.768V12.232C2.27757 11.1603 2.84936 10.1699 3.77757 9.63397L15.5 2.86603Z" fill="black"/>
<path d="M16 1.73205C16.6188 1.37479 17.3812 1.37479 18 1.73205L29.7224 8.5C30.3412 8.85727 30.7224 9.51752 30.7224 10.2321V23.768C30.7224 24.4825 30.3412 25.1427 29.7224 25.5L18 32.268C17.3812 32.6252 16.6188 32.6252 16 32.2679L4.27757 25.5C3.65877 25.1427 3.27757 24.4825 3.27757 23.768V10.232C3.27757 9.51752 3.65877 8.85727 4.27757 8.5L16 1.73205Z" fill="#9CA2AD" stroke="black" stroke-width="2"/>
<path d="M14.0798 10.9091V24H10.9221V13.8622H10.8454L7.91786 15.652V12.9162L11.1458 10.9091H14.0798ZM21.0852 24.179C20.1306 24.179 19.2826 24.0064 18.5411 23.6612C17.7996 23.3161 17.2137 22.8409 16.7833 22.2358C16.3572 21.6307 16.1356 20.9361 16.1185 20.152H19.1867C19.2123 20.6335 19.4083 21.0213 19.7748 21.3153C20.1413 21.6051 20.5781 21.75 21.0852 21.75C21.4815 21.75 21.833 21.6626 22.1398 21.4879C22.4467 21.3132 22.6874 21.0682 22.8621 20.7528C23.0369 20.4332 23.1221 20.0668 23.1178 19.6534C23.1221 19.2315 23.0347 18.8629 22.8558 18.5476C22.681 18.2322 22.4381 17.9872 22.1271 17.8125C21.8202 17.6335 21.4665 17.544 21.066 17.544C20.6867 17.5398 20.3266 17.6229 19.9857 17.7933C19.6491 17.9638 19.3934 18.196 19.2187 18.4901L16.4254 17.9659L16.9942 10.9091H25.3934V13.4595H19.5958L19.2954 16.5469H19.3721C19.5894 16.1847 19.9388 15.8864 20.4204 15.652C20.9062 15.4134 21.458 15.294 22.0759 15.294C22.86 15.294 23.5589 15.4773 24.1725 15.8438C24.7904 16.206 25.2762 16.7088 25.6299 17.3523C25.9879 17.9957 26.1668 18.733 26.1668 19.5639C26.1668 20.4631 25.9538 21.2599 25.5276 21.9545C25.1058 22.6491 24.5134 23.1946 23.7506 23.5909C22.9921 23.983 22.1036 24.179 21.0852 24.179Z" fill="#040711"/>
</svg>
