<svg width="34" height="36" viewBox="0 0 34 36" fill="none" xmlns="http://www.w3.org/2000/svg">
<path d="M15.5 2.86603C16.4282 2.33013 17.5718 2.33013 18.5 2.86603L30.2224 9.63398C31.1506 10.1699 31.7224 11.1603 31.7224 12.2321V25.768C31.7224 26.8397 31.1506 27.8301 30.2224 28.366L18.5 35.134C17.5718 35.6699 16.4282 35.6699 15.5 35.134L3.77757 28.366C2.84936 27.8301 2.27757 26.8397 2.27757 25.768V12.232C2.27757 11.1603 2.84936 10.1699 3.77757 9.63397L15.5 2.86603Z" fill="black"/>
<path d="M16 1.73205C16.6188 1.37479 17.3812 1.37479 18 1.73205L29.7224 8.5C30.3412 8.85727 30.7224 9.51752 30.7224 10.2321V23.768C30.7224 24.4825 30.3412 25.1427 29.7224 25.5L18 32.268C17.3812 32.6252 16.6188 32.6252 16 32.2679L4.27757 25.5C3.65877 25.1427 3.27757 24.4825 3.27757 23.768V10.232C3.27757 9.51752 3.65877 8.85727 4.27757 8.5L16 1.73205Z" fill="#9CA2AD" stroke="black" stroke-width="2"/>
<path d="M14.2556 10.9091V24H11.0979V13.8622H11.0212L8.09364 15.652V12.9162L11.3216 10.9091H14.2556ZM16.2496 24V21.7244L21.0244 17.544C21.3824 17.2202 21.6871 16.924 21.9385 16.6555C22.1899 16.3828 22.3817 16.1101 22.5138 15.8374C22.6459 15.5604 22.7119 15.2599 22.7119 14.9361C22.7119 14.5739 22.6331 14.2649 22.4754 14.0092C22.3178 13.7493 22.1004 13.549 21.8234 13.4084C21.5464 13.2678 21.229 13.1974 20.871 13.1974C20.5088 13.1974 20.1913 13.272 19.9186 13.4212C19.6459 13.5661 19.4328 13.777 19.2794 14.054C19.1303 14.331 19.0557 14.6676 19.0557 15.0639H16.0578C16.0578 14.1733 16.2581 13.4041 16.6587 12.7564C17.0592 12.1087 17.6217 11.6101 18.3462 11.2607C19.0749 10.907 19.9207 10.7301 20.8838 10.7301C21.8767 10.7301 22.7396 10.8963 23.4726 11.2287C24.2055 11.5611 24.7723 12.0256 25.1729 12.6222C25.5777 13.2145 25.7801 13.9027 25.7801 14.6868C25.7801 15.1854 25.68 15.6797 25.4797 16.1697C25.2794 16.6598 24.9193 17.201 24.3994 17.7933C23.8838 18.3857 23.1509 19.0952 22.2006 19.9219L20.6345 21.3665V21.4496H25.9399V24H16.2496Z" fill="#040711"/>
</svg>
