<svg width="36" height="36" viewBox="0 0 36 36" fill="none" xmlns="http://www.w3.org/2000/svg">
<path d="M16.5 2.86603C17.4282 2.33013 18.5718 2.33013 19.5 2.86603L31.2224 9.63397C32.1506 10.1699 32.7224 11.1603 32.7224 12.2321V25.7679C32.7224 26.8397 32.1506 27.8301 31.2224 28.366L19.5 35.134C18.5718 35.6699 17.4282 35.6699 16.5 35.134L4.77757 28.366C3.84936 27.8301 3.27757 26.8397 3.27757 25.7679V12.2321C3.27757 11.1603 3.84936 10.1699 4.77757 9.63397L16.5 2.86603Z" fill="black"/>
<path d="M19 1.73205L30.7224 8.5C31.3412 8.85727 31.7224 9.51752 31.7224 10.2321V23.768C31.7224 24.4825 31.3412 25.1427 30.7224 25.5L19 32.2679C18.3812 32.6252 17.6188 32.6252 17 32.2679L5.27757 25.5C4.65877 25.1427 4.27757 24.4825 4.27757 23.768V10.232C4.27757 9.51752 4.65877 8.85727 5.27757 8.5L17 1.73205C17.6188 1.37479 18.3812 1.37479 19 1.73205Z" fill="url(#paint0_linear_122_2039)" stroke="black" stroke-width="2"/>
<path d="M24.2349 17.5013C22.9266 14.1013 18.2682 13.918 19.3932 8.97634C19.4766 8.60967 19.0849 8.32634 18.7682 8.518C15.7432 10.3013 13.5682 13.8763 15.3932 18.5597C15.5432 18.943 15.0932 19.3013 14.7682 19.0513C13.2599 17.9097 13.1016 16.268 13.2349 15.093C13.2849 14.6597 12.7182 14.4513 12.4766 14.8097C11.9099 15.6763 11.3349 17.0763 11.3349 19.1847C11.6516 23.8513 15.5932 25.2847 17.0099 25.468C19.0349 25.7263 21.2266 25.3513 22.8016 23.9097C24.5349 22.3013 25.1682 19.7347 24.2349 17.5013Z" fill="#040711"/>
<defs>
<linearGradient id="paint0_linear_122_2039" x1="18" y1="0" x2="18" y2="34" gradientUnits="userSpaceOnUse">
<stop stop-color="#F87070"/>
<stop offset="1" stop-color="#F04646"/>
</linearGradient>
</defs>
</svg>
