<svg width="36" height="36" viewBox="0 0 36 36" fill="none" xmlns="http://www.w3.org/2000/svg">
<path d="M16.5 2.86603C17.4282 2.33013 18.5718 2.33013 19.5 2.86603L31.2224 9.63397C32.1506 10.1699 32.7224 11.1603 32.7224 12.2321V25.7679C32.7224 26.8397 32.1506 27.8301 31.2224 28.366L19.5 35.134C18.5718 35.6699 17.4282 35.6699 16.5 35.134L4.77757 28.366C3.84936 27.8301 3.27757 26.8397 3.27757 25.7679V12.2321C3.27757 11.1603 3.84936 10.1699 4.77757 9.63397L16.5 2.86603Z" fill="black"/>
<path d="M19 1.73205L30.7224 8.5C31.3412 8.85727 31.7224 9.51752 31.7224 10.2321V23.768C31.7224 24.4825 31.3412 25.1427 30.7224 25.5L19 32.2679C18.3812 32.6252 17.6188 32.6252 17 32.2679L5.27757 25.5C4.65877 25.1427 4.27757 24.4825 4.27757 23.768V10.232C4.27757 9.51752 4.65877 8.85727 5.27757 8.5L17 1.73205C17.6188 1.37479 18.3812 1.37479 19 1.73205Z" fill="url(#paint0_linear_122_2150)" stroke="black" stroke-width="2"/>
<path d="M15.0798 10.9091V24H11.9221V13.8622H11.8454L8.91786 15.652V12.9162L12.1458 10.9091H15.0798ZM22.0852 24.179C21.1306 24.179 20.2826 24.0064 19.5411 23.6612C18.7996 23.3161 18.2137 22.8409 17.7833 22.2358C17.3572 21.6307 17.1356 20.9361 17.1185 20.152H20.1867C20.2123 20.6335 20.4083 21.0213 20.7748 21.3153C21.1413 21.6051 21.5781 21.75 22.0852 21.75C22.4815 21.75 22.833 21.6626 23.1398 21.4879C23.4467 21.3132 23.6874 21.0682 23.8621 20.7528C24.0369 20.4332 24.1221 20.0668 24.1178 19.6534C24.1221 19.2315 24.0347 18.8629 23.8558 18.5476C23.681 18.2322 23.4381 17.9872 23.1271 17.8125C22.8202 17.6335 22.4665 17.544 22.066 17.544C21.6867 17.5398 21.3266 17.6229 20.9857 17.7933C20.6491 17.9638 20.3934 18.196 20.2187 18.4901L17.4254 17.9659L17.9942 10.9091H26.3934V13.4595H20.5958L20.2954 16.5469H20.3721C20.5894 16.1847 20.9388 15.8864 21.4204 15.652C21.9062 15.4134 22.458 15.294 23.0759 15.294C23.86 15.294 24.5589 15.4773 25.1725 15.8438C25.7904 16.206 26.2762 16.7088 26.6299 17.3523C26.9879 17.9957 27.1668 18.733 27.1668 19.5639C27.1668 20.4631 26.9538 21.2599 26.5276 21.9545C26.1058 22.6491 25.5134 23.1946 24.7506 23.5909C23.9921 23.983 23.1036 24.179 22.0852 24.179Z" fill="#040711"/>
<defs>
<linearGradient id="paint0_linear_122_2150" x1="18" y1="0" x2="18" y2="34" gradientUnits="userSpaceOnUse">
<stop stop-color="#9CA2AD"/>
<stop offset="1" stop-color="#6F7581"/>
</linearGradient>
</defs>
</svg>
