<svg width="36" height="36" viewBox="0 0 36 36" fill="none" xmlns="http://www.w3.org/2000/svg">
<path d="M16.5 2.86603C17.4282 2.33013 18.5718 2.33013 19.5 2.86603L31.2224 9.63397C32.1506 10.1699 32.7224 11.1603 32.7224 12.2321V25.7679C32.7224 26.8397 32.1506 27.8301 31.2224 28.366L19.5 35.134C18.5718 35.6699 17.4282 35.6699 16.5 35.134L4.77757 28.366C3.84936 27.8301 3.27757 26.8397 3.27757 25.7679V12.2321C3.27757 11.1603 3.84936 10.1699 4.77757 9.63397L16.5 2.86603Z" fill="black"/>
<path d="M19 1.73205L30.7224 8.5C31.3412 8.85727 31.7224 9.51752 31.7224 10.2321V23.768C31.7224 24.4825 31.3412 25.1427 30.7224 25.5L19 32.2679C18.3812 32.6252 17.6188 32.6252 17 32.2679L5.27757 25.5C4.65877 25.1427 4.27757 24.4825 4.27757 23.768V10.232C4.27757 9.51752 4.65877 8.85727 5.27757 8.5L17 1.73205C17.6188 1.37479 18.3812 1.37479 19 1.73205Z" fill="url(#paint0_linear_122_2115)" stroke="black" stroke-width="2"/>
<path d="M17.9968 24.179C16.9783 24.179 16.0685 24.017 15.2674 23.6932C14.4705 23.3651 13.8441 22.9219 13.3881 22.3636C12.9364 21.8011 12.7106 21.1662 12.7106 20.4588C12.7106 19.9176 12.8406 19.4212 13.1005 18.9695C13.3604 18.5178 13.712 18.1428 14.1552 17.8445C14.6026 17.5419 15.1012 17.348 15.6509 17.2628V17.1605C14.9308 17.0284 14.3406 16.6939 13.8803 16.157C13.4244 15.62 13.1964 14.9915 13.1964 14.2713C13.1964 13.5895 13.4031 12.9822 13.8164 12.4496C14.234 11.9169 14.8029 11.4972 15.5231 11.1903C16.2475 10.8835 17.0721 10.7301 17.9968 10.7301C18.9215 10.7301 19.744 10.8835 20.4641 11.1903C21.1886 11.4972 21.7575 11.9169 22.1708 12.4496C22.5884 12.9822 22.7972 13.5895 22.7972 14.2713C22.7972 14.9957 22.565 15.6264 22.1005 16.1634C21.6403 16.696 21.0543 17.0284 20.3427 17.1605V17.2628C20.8881 17.348 21.3825 17.5419 21.8256 17.8445C22.2731 18.1428 22.6268 18.5178 22.8867 18.9695C23.1509 19.4212 23.283 19.9176 23.283 20.4588C23.283 21.1662 23.055 21.8011 22.5991 22.3636C22.1431 22.9219 21.5167 23.3651 20.7198 23.6932C19.9272 24.017 19.0195 24.179 17.9968 24.179ZM17.9968 21.9354C18.3846 21.9354 18.7255 21.8629 19.0195 21.718C19.3136 21.5689 19.5437 21.3622 19.7099 21.098C19.8803 20.8338 19.9656 20.5355 19.9656 20.2031C19.9656 19.8622 19.8803 19.5597 19.7099 19.2955C19.5394 19.0312 19.305 18.8246 19.0067 18.6754C18.7127 18.522 18.3761 18.4453 17.9968 18.4453C17.6218 18.4453 17.2852 18.522 16.9869 18.6754C16.6886 18.8246 16.4542 19.0312 16.2837 19.2955C16.1133 19.5597 16.0281 19.8622 16.0281 20.2031C16.0281 20.5355 16.1112 20.8338 16.2773 21.098C16.4478 21.358 16.68 21.5625 16.9741 21.7116C17.2724 21.8608 17.6133 21.9354 17.9968 21.9354ZM17.9968 16.2145C18.3292 16.2145 18.6232 16.1463 18.8789 16.0099C19.1388 15.8736 19.3413 15.6839 19.4862 15.4411C19.6353 15.1982 19.7099 14.9233 19.7099 14.6165C19.7099 14.3097 19.6353 14.0391 19.4862 13.8047C19.3413 13.5703 19.141 13.3871 18.8853 13.255C18.6296 13.1186 18.3335 13.0504 17.9968 13.0504C17.6644 13.0504 17.3683 13.1186 17.1083 13.255C16.8484 13.3871 16.646 13.5703 16.5011 13.8047C16.3562 14.0391 16.2837 14.3097 16.2837 14.6165C16.2837 14.9233 16.3562 15.1982 16.5011 15.4411C16.6502 15.6797 16.8548 15.8693 17.1147 16.0099C17.3746 16.1463 17.6687 16.2145 17.9968 16.2145Z" fill="#040711"/>
<defs>
<linearGradient id="paint0_linear_122_2115" x1="18" y1="0" x2="18" y2="34" gradientUnits="userSpaceOnUse">
<stop stop-color="#9CA2AD"/>
<stop offset="1" stop-color="#6F7581"/>
</linearGradient>
</defs>
</svg>
