<svg width="36" height="36" viewBox="0 0 36 36" fill="none" xmlns="http://www.w3.org/2000/svg">
<path d="M16.5 2.86603C17.4282 2.33013 18.5718 2.33013 19.5 2.86603L31.2224 9.63397C32.1506 10.1699 32.7224 11.1603 32.7224 12.2321V25.7679C32.7224 26.8397 32.1506 27.8301 31.2224 28.366L19.5 35.134C18.5718 35.6699 17.4282 35.6699 16.5 35.134L4.77757 28.366C3.84936 27.8301 3.27757 26.8397 3.27757 25.7679V12.2321C3.27757 11.1603 3.84936 10.1699 4.77757 9.63397L16.5 2.86603Z" fill="black"/>
<path d="M19 1.73205L30.7224 8.5C31.3412 8.85727 31.7224 9.51752 31.7224 10.2321V23.768C31.7224 24.4825 31.3412 25.1427 30.7224 25.5L19 32.2679C18.3812 32.6252 17.6188 32.6252 17 32.2679L5.27757 25.5C4.65877 25.1427 4.27757 24.4825 4.27757 23.768V10.232C4.27757 9.51752 4.65877 8.85727 5.27757 8.5L17 1.73205C17.6188 1.37479 18.3812 1.37479 19 1.73205Z" fill="url(#paint0_linear_122_2125)" stroke="black" stroke-width="2"/>
<path d="M14.614 10.9091V24H11.4563V13.8622H11.3796L8.45204 15.652V12.9162L11.68 10.9091H14.614ZM22.022 24.3196C20.88 24.3196 19.8956 24.049 19.0689 23.5078C18.2422 22.9624 17.6051 22.1804 17.1577 21.1619C16.7102 20.1392 16.4887 18.9098 16.4929 17.4737C16.4972 16.0376 16.7209 14.8189 17.1641 13.8175C17.6115 12.8118 18.2465 12.0469 19.0689 11.5227C19.8956 10.9943 20.88 10.7301 22.022 10.7301C23.1641 10.7301 24.1485 10.9943 24.9752 11.5227C25.8061 12.0469 26.4453 12.8118 26.8928 13.8175C27.3402 14.8232 27.5618 16.0419 27.5575 17.4737C27.5575 18.9141 27.3338 20.1456 26.8864 21.1683C26.4389 22.1911 25.8019 22.973 24.9752 23.5142C24.1527 24.0511 23.1683 24.3196 22.022 24.3196ZM22.022 21.7308C22.7039 21.7308 23.2557 21.3835 23.6776 20.6889C24.0994 19.9901 24.3083 18.9183 24.304 17.4737C24.304 16.5277 24.2081 15.7479 24.0164 15.1342C23.8246 14.5163 23.5583 14.0561 23.2173 13.7536C22.8764 13.451 22.478 13.2997 22.022 13.2997C21.3445 13.2997 20.7969 13.6428 20.3793 14.3288C19.9617 15.0107 19.7507 16.0589 19.7465 17.4737C19.7422 18.4325 19.8338 19.2273 20.0213 19.858C20.2131 20.4886 20.4816 20.9595 20.8267 21.2706C21.1719 21.5774 21.5703 21.7308 22.022 21.7308Z" fill="#040711"/>
<defs>
<linearGradient id="paint0_linear_122_2125" x1="18" y1="0" x2="18" y2="34" gradientUnits="userSpaceOnUse">
<stop stop-color="#9CA2AD"/>
<stop offset="1" stop-color="#6F7581"/>
</linearGradient>
</defs>
</svg>
