<svg width="36" height="36" viewBox="0 0 36 36" fill="none" xmlns="http://www.w3.org/2000/svg">
<path d="M16.5 2.86603C17.4282 2.33013 18.5718 2.33013 19.5 2.86603L31.2224 9.63397C32.1506 10.1699 32.7224 11.1603 32.7224 12.2321V25.7679C32.7224 26.8397 32.1506 27.8301 31.2224 28.366L19.5 35.134C18.5718 35.6699 17.4282 35.6699 16.5 35.134L4.77757 28.366C3.84936 27.8301 3.27757 26.8397 3.27757 25.7679V12.2321C3.27757 11.1603 3.84936 10.1699 4.77757 9.63397L16.5 2.86603Z" fill="black"/>
<path d="M19 1.73205L30.7224 8.5C31.3412 8.85727 31.7224 9.51752 31.7224 10.2321V23.768C31.7224 24.4825 31.3412 25.1427 30.7224 25.5L19 32.2679C18.3812 32.6252 17.6188 32.6252 17 32.2679L5.27757 25.5C4.65877 25.1427 4.27757 24.4825 4.27757 23.768V10.232C4.27757 9.51752 4.65877 8.85727 5.27757 8.5L17 1.73205C17.6188 1.37479 18.3812 1.37479 19 1.73205Z" fill="url(#paint0_linear_122_2105)" stroke="black" stroke-width="2"/>
<path d="M18.1574 24.179C17.4415 24.179 16.7554 24.0639 16.0992 23.8338C15.4429 23.5994 14.8591 23.2287 14.3477 22.7216C13.8364 22.2102 13.4337 21.5412 13.1396 20.7145C12.8456 19.8835 12.7007 18.8714 12.705 17.6783C12.7093 16.6001 12.8414 15.6328 13.1013 14.7763C13.3612 13.9155 13.732 13.1847 14.2135 12.5838C14.6993 11.983 15.2789 11.5249 15.9521 11.2095C16.6297 10.8899 17.3861 10.7301 18.2213 10.7301C19.1375 10.7301 19.945 10.9091 20.6439 11.267C21.347 11.6207 21.9095 12.098 22.3314 12.6989C22.7533 13.2955 23.0026 13.9602 23.0793 14.6932H19.9664C19.8726 14.2798 19.6659 13.9666 19.3463 13.7536C19.031 13.5362 18.656 13.4276 18.2213 13.4276C17.4202 13.4276 16.8215 13.7749 16.4252 14.4695C16.0331 15.1641 15.8328 16.093 15.8243 17.2564H15.9074C16.0864 16.8643 16.3442 16.5277 16.6808 16.2464C17.0175 15.9652 17.4031 15.75 17.8378 15.6009C18.2767 15.4474 18.7412 15.3707 19.2313 15.3707C20.0154 15.3707 20.7078 15.5518 21.3087 15.9141C21.9095 16.2763 22.3804 16.7727 22.7213 17.4034C23.0622 18.0298 23.2306 18.7479 23.2263 19.5575C23.2306 20.4695 23.0175 21.2749 22.5871 21.9737C22.1567 22.6683 21.5601 23.2095 20.7973 23.5973C20.0388 23.9851 19.1588 24.179 18.1574 24.179ZM18.1382 21.75C18.526 21.75 18.8733 21.6584 19.1801 21.4751C19.4869 21.2919 19.7277 21.0426 19.9024 20.7273C20.0771 20.4119 20.1624 20.0561 20.1581 19.6598C20.1624 19.2592 20.0771 18.9034 19.9024 18.5923C19.732 18.2812 19.4933 18.0341 19.1865 17.8509C18.884 17.6676 18.5367 17.576 18.1446 17.576C17.8591 17.576 17.5928 17.6293 17.3456 17.7358C17.0985 17.8423 16.8833 17.9915 16.7 18.1832C16.521 18.3707 16.3804 18.5923 16.2781 18.848C16.1759 19.0994 16.1226 19.3722 16.1183 19.6662C16.1226 20.054 16.2121 20.4055 16.3868 20.7209C16.5615 21.0362 16.8002 21.2876 17.1027 21.4751C17.4053 21.6584 17.7504 21.75 18.1382 21.75Z" fill="#040711"/>
<defs>
<linearGradient id="paint0_linear_122_2105" x1="18" y1="0" x2="18" y2="34" gradientUnits="userSpaceOnUse">
<stop stop-color="#9CA2AD"/>
<stop offset="1" stop-color="#6F7581"/>
</linearGradient>
</defs>
</svg>
