<svg width="36" height="36" viewBox="0 0 36 36" fill="none" xmlns="http://www.w3.org/2000/svg">
<path d="M16.5 2.86603C17.4282 2.33013 18.5718 2.33013 19.5 2.86603L31.2224 9.63397C32.1506 10.1699 32.7224 11.1603 32.7224 12.2321V25.7679C32.7224 26.8397 32.1506 27.8301 31.2224 28.366L19.5 35.134C18.5718 35.6699 17.4282 35.6699 16.5 35.134L4.77757 28.366C3.84936 27.8301 3.27757 26.8397 3.27757 25.7679V12.2321C3.27757 11.1603 3.84936 10.1699 4.77757 9.63397L16.5 2.86603Z" fill="black"/>
<path d="M19 1.73205L30.7224 8.5C31.3412 8.85727 31.7224 9.51752 31.7224 10.2321V23.768C31.7224 24.4825 31.3412 25.1427 30.7224 25.5L19 32.2679C18.3812 32.6252 17.6188 32.6252 17 32.2679L5.27757 25.5C4.65877 25.1427 4.27757 24.4825 4.27757 23.768V10.232C4.27757 9.51752 4.65877 8.85727 5.27757 8.5L17 1.73205C17.6188 1.37479 18.3812 1.37479 19 1.73205Z" fill="url(#paint0_linear_122_2135)" stroke="black" stroke-width="2"/>
<path d="M15.2556 10.9091V24H12.0979V13.8622H12.0212L9.09364 15.652V12.9162L12.3216 10.9091H15.2556ZM17.2496 24V21.7244L22.0244 17.544C22.3824 17.2202 22.6871 16.924 22.9385 16.6555C23.1899 16.3828 23.3817 16.1101 23.5138 15.8374C23.6459 15.5604 23.7119 15.2599 23.7119 14.9361C23.7119 14.5739 23.6331 14.2649 23.4754 14.0092C23.3178 13.7493 23.1004 13.549 22.8234 13.4084C22.5464 13.2678 22.229 13.1974 21.871 13.1974C21.5088 13.1974 21.1913 13.272 20.9186 13.4212C20.6459 13.5661 20.4328 13.777 20.2794 14.054C20.1303 14.331 20.0557 14.6676 20.0557 15.0639H17.0578C17.0578 14.1733 17.2581 13.4041 17.6587 12.7564C18.0592 12.1087 18.6217 11.6101 19.3462 11.2607C20.0749 10.907 20.9207 10.7301 21.8838 10.7301C22.8767 10.7301 23.7396 10.8963 24.4726 11.2287C25.2055 11.5611 25.7723 12.0256 26.1729 12.6222C26.5777 13.2145 26.7801 13.9027 26.7801 14.6868C26.7801 15.1854 26.68 15.6797 26.4797 16.1697C26.2794 16.6598 25.9193 17.201 25.3994 17.7933C24.8838 18.3857 24.1509 19.0952 23.2006 19.9219L21.6345 21.3665V21.4496H26.9399V24H17.2496Z" fill="#040711"/>
<defs>
<linearGradient id="paint0_linear_122_2135" x1="18" y1="0" x2="18" y2="34" gradientUnits="userSpaceOnUse">
<stop stop-color="#9CA2AD"/>
<stop offset="1" stop-color="#6F7581"/>
</linearGradient>
</defs>
</svg>
