<svg width="36" height="36" viewBox="0 0 36 36" fill="none" xmlns="http://www.w3.org/2000/svg">
<path d="M16.5 2.86603C17.4282 2.33013 18.5718 2.33013 19.5 2.86603L31.2224 9.63397C32.1506 10.1699 32.7224 11.1603 32.7224 12.2321V25.7679C32.7224 26.8397 32.1506 27.8301 31.2224 28.366L19.5 35.134C18.5718 35.6699 17.4282 35.6699 16.5 35.134L4.77757 28.366C3.84936 27.8301 3.27757 26.8397 3.27757 25.7679V12.2321C3.27757 11.1603 3.84936 10.1699 4.77757 9.63397L16.5 2.86603Z" fill="black"/>
<path d="M19 1.73205L30.7224 8.5C31.3412 8.85727 31.7224 9.51752 31.7224 10.2321V23.768C31.7224 24.4825 31.3412 25.1427 30.7224 25.5L19 32.2679C18.3812 32.6252 17.6188 32.6252 17 32.2679L5.27757 25.5C4.65877 25.1427 4.27757 24.4825 4.27757 23.768V10.232C4.27757 9.51752 4.65877 8.85727 5.27757 8.5L17 1.73205C17.6188 1.37479 18.3812 1.37479 19 1.73205Z" fill="url(#paint0_linear_122_2120)" stroke="black" stroke-width="2"/>
<path d="M17.8378 10.7301C18.5537 10.7301 19.2377 10.8473 19.8896 11.0817C20.5416 11.3118 21.1233 11.6804 21.6347 12.1875C22.146 12.6903 22.5487 13.353 22.8428 14.1754C23.1368 14.9979 23.2838 16.0014 23.2838 17.1861C23.2881 18.277 23.1602 19.255 22.9003 20.12C22.6404 20.9808 22.2675 21.7138 21.7817 22.3189C21.3002 22.924 20.7206 23.3864 20.0431 23.706C19.3655 24.0213 18.6091 24.179 17.7739 24.179C16.8534 24.179 16.0416 24.0021 15.3385 23.6484C14.6396 23.2905 14.0793 22.8089 13.6574 22.2038C13.2398 21.5987 12.9905 20.9212 12.9095 20.1712H16.0225C16.1205 20.6058 16.3271 20.9339 16.6425 21.1555C16.9578 21.3729 17.335 21.4815 17.7739 21.4815C18.575 21.4815 19.1737 21.1342 19.57 20.4396C19.9664 19.745 20.1645 18.8011 20.1645 17.608H20.0878C19.9046 18 19.6446 18.3366 19.308 18.6179C18.9756 18.8991 18.5899 19.1143 18.151 19.2635C17.7121 19.4126 17.2497 19.4872 16.7639 19.4872C15.9798 19.4872 15.2874 19.3082 14.6865 18.9503C14.0899 18.5923 13.6212 18.1001 13.2803 17.4737C12.9436 16.8473 12.7732 16.1314 12.7689 15.326C12.7646 14.4226 12.9756 13.6257 13.4017 12.9354C13.8279 12.2408 14.4223 11.6996 15.1851 11.3118C15.9479 10.9197 16.8321 10.7259 17.8378 10.7301ZM17.857 13.1591C17.4649 13.1591 17.1155 13.2507 16.8087 13.4339C16.5061 13.6172 16.2675 13.8643 16.0928 14.1754C15.9181 14.4865 15.8328 14.8359 15.8371 15.2237C15.8414 15.6115 15.9287 15.9609 16.0992 16.272C16.2739 16.5831 16.5104 16.8303 16.8087 17.0135C17.1112 17.1967 17.4564 17.2884 17.8442 17.2884C18.134 17.2884 18.4024 17.2351 18.6496 17.1286C18.8968 17.022 19.1119 16.875 19.2952 16.6875C19.4784 16.4957 19.6212 16.2741 19.7235 16.0227C19.83 15.7713 19.8811 15.5028 19.8769 15.2173C19.8726 14.8381 19.7831 14.4929 19.6084 14.1818C19.4337 13.8707 19.1929 13.6236 18.8861 13.4403C18.5835 13.2528 18.2405 13.1591 17.857 13.1591Z" fill="#040711"/>
<defs>
<linearGradient id="paint0_linear_122_2120" x1="18" y1="0" x2="18" y2="34" gradientUnits="userSpaceOnUse">
<stop stop-color="#9CA2AD"/>
<stop offset="1" stop-color="#6F7581"/>
</linearGradient>
</defs>
</svg>
