<svg width="36" height="36" viewBox="0 0 36 36" fill="none" xmlns="http://www.w3.org/2000/svg">
<path d="M16.5 2.86603C17.4282 2.33013 18.5718 2.33013 19.5 2.86603L31.2224 9.63397C32.1506 10.1699 32.7224 11.1603 32.7224 12.2321V25.7679C32.7224 26.8397 32.1506 27.8301 31.2224 28.366L19.5 35.134C18.5718 35.6699 17.4282 35.6699 16.5 35.134L4.77757 28.366C3.84936 27.8301 3.27757 26.8397 3.27757 25.7679V12.2321C3.27757 11.1603 3.84936 10.1699 4.77757 9.63397L16.5 2.86603Z" fill="black"/>
<path d="M19 1.73205L30.7224 8.5C31.3412 8.85727 31.7224 9.51752 31.7224 10.2321V23.768C31.7224 24.4825 31.3412 25.1427 30.7224 25.5L19 32.2679C18.3812 32.6252 17.6188 32.6252 17 32.2679L5.27757 25.5C4.65877 25.1427 4.27757 24.4825 4.27757 23.768V10.232C4.27757 9.51752 4.65877 8.85727 5.27757 8.5L17 1.73205C17.6188 1.37479 18.3812 1.37479 19 1.73205Z" fill="url(#paint0_linear_122_2140)" stroke="black" stroke-width="2"/>
<path d="M14.9919 10.9091V24H11.8342V13.8622H11.7575L8.82997 15.652V12.9162L12.058 10.9091H14.9919ZM21.9653 24.179C20.9681 24.179 20.0839 24.0085 19.3126 23.6676C18.5456 23.3224 17.9404 22.8473 17.4973 22.2422C17.0541 21.6371 16.8282 20.9403 16.8197 20.152H20.0029C20.0157 20.4375 20.1074 20.6911 20.2778 20.9126C20.4483 21.13 20.6805 21.3004 20.9745 21.424C21.2686 21.5476 21.6031 21.6094 21.9781 21.6094C22.3531 21.6094 22.6833 21.5433 22.9689 21.4112C23.2586 21.2749 23.4845 21.0895 23.6464 20.8551C23.8083 20.6165 23.8872 20.3437 23.8829 20.0369C23.8872 19.7301 23.7998 19.4574 23.6208 19.2188C23.4419 18.9801 23.1883 18.7947 22.8602 18.6626C22.5363 18.5305 22.1528 18.4645 21.7096 18.4645H20.4376V16.2145H21.7096C22.0974 16.2145 22.4383 16.1506 22.7324 16.0227C23.0306 15.8949 23.2629 15.7159 23.4291 15.4858C23.5953 15.2514 23.6762 14.983 23.672 14.6804C23.6762 14.3864 23.6059 14.1286 23.461 13.907C23.3204 13.6811 23.1223 13.5064 22.8666 13.3828C22.6152 13.2592 22.3233 13.1974 21.9909 13.1974C21.6414 13.1974 21.324 13.2592 21.0385 13.3828C20.7572 13.5064 20.5335 13.6811 20.3673 13.907C20.2011 14.1328 20.1137 14.3949 20.1052 14.6932H17.0818C17.0903 13.9134 17.3076 13.2273 17.7338 12.6349C18.1599 12.0384 18.7395 11.5717 19.4724 11.2351C20.2096 10.8984 21.0491 10.7301 21.9909 10.7301C22.9284 10.7301 23.7529 10.8942 24.4646 11.2223C25.1762 11.5504 25.7302 11.9979 26.1265 12.5646C26.5228 13.1271 26.721 13.7642 26.721 14.4759C26.7252 15.2131 26.4845 15.8203 25.9987 16.2976C25.5172 16.7749 24.8971 17.0689 24.1386 17.1797V17.282C25.1528 17.4013 25.9177 17.7294 26.4333 18.2663C26.9532 18.8033 27.211 19.4744 27.2068 20.2798C27.2068 21.0384 26.9831 21.7116 26.5356 22.2997C26.0924 22.8835 25.4745 23.3437 24.6819 23.6804C23.8936 24.0128 22.988 24.179 21.9653 24.179Z" fill="#040711"/>
<defs>
<linearGradient id="paint0_linear_122_2140" x1="18" y1="0" x2="18" y2="34" gradientUnits="userSpaceOnUse">
<stop stop-color="#9CA2AD"/>
<stop offset="1" stop-color="#6F7581"/>
</linearGradient>
</defs>
</svg>
