<svg width="36" height="36" viewBox="0 0 36 36" fill="none" xmlns="http://www.w3.org/2000/svg">
<path d="M16.5 2.86603C17.4282 2.33013 18.5718 2.33013 19.5 2.86603L31.2224 9.63397C32.1506 10.1699 32.7224 11.1603 32.7224 12.2321V25.7679C32.7224 26.8397 32.1506 27.8301 31.2224 28.366L19.5 35.134C18.5718 35.6699 17.4282 35.6699 16.5 35.134L4.77757 28.366C3.84936 27.8301 3.27757 26.8397 3.27757 25.7679V12.2321C3.27757 11.1603 3.84936 10.1699 4.77757 9.63397L16.5 2.86603Z" fill="black"/>
<path d="M19 1.73205L30.7224 8.5C31.3412 8.85727 31.7224 9.51752 31.7224 10.2321V23.768C31.7224 24.4825 31.3412 25.1427 30.7224 25.5L19 32.2679C18.3812 32.6252 17.6188 32.6252 17 32.2679L5.27757 25.5C4.65877 25.1427 4.27757 24.4825 4.27757 23.768V10.232C4.27757 9.51752 4.65877 8.85727 5.27757 8.5L17 1.73205C17.6188 1.37479 18.3812 1.37479 19 1.73205Z" fill="url(#paint0_linear_122_2085)" stroke="black" stroke-width="2"/>
<path d="M13.2259 24V21.7244L18.0008 17.544C18.3588 17.2202 18.6634 16.924 18.9149 16.6555C19.1663 16.3828 19.358 16.1101 19.4901 15.8374C19.6222 15.5604 19.6883 15.2599 19.6883 14.9361C19.6883 14.5739 19.6095 14.2649 19.4518 14.0092C19.2941 13.7493 19.0768 13.549 18.7998 13.4084C18.5228 13.2678 18.2053 13.1974 17.8474 13.1974C17.4852 13.1974 17.1677 13.272 16.895 13.4212C16.6222 13.5661 16.4092 13.777 16.2558 14.054C16.1066 14.331 16.032 14.6676 16.032 15.0639H13.0342C13.0342 14.1733 13.2345 13.4041 13.635 12.7564C14.0356 12.1087 14.5981 11.6101 15.3225 11.2607C16.0512 10.907 16.8971 10.7301 17.8602 10.7301C18.8531 10.7301 19.716 10.8963 20.449 11.2287C21.1819 11.5611 21.7487 12.0256 22.1492 12.6222C22.5541 13.2145 22.7565 13.9027 22.7565 14.6868C22.7565 15.1854 22.6563 15.6797 22.4561 16.1697C22.2558 16.6598 21.8957 17.201 21.3758 17.7933C20.8602 18.3857 20.1272 19.0952 19.1769 19.9219L17.6109 21.3665V21.4496H22.9163V24H13.2259Z" fill="#040711"/>
<defs>
<linearGradient id="paint0_linear_122_2085" x1="18" y1="0" x2="18" y2="34" gradientUnits="userSpaceOnUse">
<stop stop-color="#9CA2AD"/>
<stop offset="1" stop-color="#6F7581"/>
</linearGradient>
</defs>
</svg>
