<svg width="36" height="36" viewBox="0 0 36 36" fill="none" xmlns="http://www.w3.org/2000/svg">
<path d="M16.5 2.86603C17.4282 2.33013 18.5718 2.33013 19.5 2.86603L31.2224 9.63397C32.1506 10.1699 32.7224 11.1603 32.7224 12.2321V25.7679C32.7224 26.8397 32.1506 27.8301 31.2224 28.366L19.5 35.134C18.5718 35.6699 17.4282 35.6699 16.5 35.134L4.77757 28.366C3.84936 27.8301 3.27757 26.8397 3.27757 25.7679V12.2321C3.27757 11.1603 3.84936 10.1699 4.77757 9.63397L16.5 2.86603Z" fill="black"/>
<path d="M19 1.73205L30.7224 8.5C31.3412 8.85727 31.7224 9.51752 31.7224 10.2321V23.768C31.7224 24.4825 31.3412 25.1427 30.7224 25.5L19 32.2679C18.3812 32.6252 17.6188 32.6252 17 32.2679L5.27757 25.5C4.65877 25.1427 4.27757 24.4825 4.27757 23.768V10.232C4.27757 9.51752 4.65877 8.85727 5.27757 8.5L17 1.73205C17.6188 1.37479 18.3812 1.37479 19 1.73205Z" fill="url(#paint0_linear_122_2100)" stroke="black" stroke-width="2"/>
<path d="M18.0615 24.179C17.107 24.179 16.259 24.0064 15.5175 23.6612C14.776 23.3161 14.1901 22.8409 13.7597 22.2358C13.3335 21.6307 13.1119 20.9361 13.0949 20.152H16.1631C16.1887 20.6335 16.3847 21.0213 16.7512 21.3153C17.1176 21.6051 17.5544 21.75 18.0615 21.75C18.4578 21.75 18.8094 21.6626 19.1162 21.4879C19.423 21.3132 19.6638 21.0682 19.8385 20.7528C20.0132 20.4332 20.0985 20.0668 20.0942 19.6534C20.0985 19.2315 20.0111 18.8629 19.8321 18.5476C19.6574 18.2322 19.4145 17.9872 19.1034 17.8125C18.7966 17.6335 18.4429 17.544 18.0423 17.544C17.6631 17.5398 17.303 17.6229 16.9621 17.7933C16.6254 17.9638 16.3698 18.196 16.195 18.4901L13.4017 17.9659L13.9706 10.9091H22.3698V13.4595H16.5722L16.2718 16.5469H16.3485C16.5658 16.1847 16.9152 15.8864 17.3968 15.652C17.8825 15.4134 18.4344 15.294 19.0523 15.294C19.8364 15.294 20.5352 15.4773 21.1489 15.8438C21.7668 16.206 22.2526 16.7088 22.6063 17.3523C22.9642 17.9957 23.1432 18.733 23.1432 19.5639C23.1432 20.4631 22.9301 21.2599 22.504 21.9545C22.0821 22.6491 21.4898 23.1946 20.727 23.5909C19.9685 23.983 19.08 24.179 18.0615 24.179Z" fill="#040711"/>
<defs>
<linearGradient id="paint0_linear_122_2100" x1="18" y1="0" x2="18" y2="34" gradientUnits="userSpaceOnUse">
<stop stop-color="#9CA2AD"/>
<stop offset="1" stop-color="#6F7581"/>
</linearGradient>
</defs>
</svg>
