<svg width="36" height="36" viewBox="0 0 36 36" fill="none" xmlns="http://www.w3.org/2000/svg">
<path d="M16.5 2.86603C17.4282 2.33013 18.5718 2.33013 19.5 2.86603L31.2224 9.63397C32.1506 10.1699 32.7224 11.1603 32.7224 12.2321V25.7679C32.7224 26.8397 32.1506 27.8301 31.2224 28.366L19.5 35.134C18.5718 35.6699 17.4282 35.6699 16.5 35.134L4.77757 28.366C3.84936 27.8301 3.27757 26.8397 3.27757 25.7679V12.2321C3.27757 11.1603 3.84936 10.1699 4.77757 9.63397L16.5 2.86603Z" fill="black"/>
<path d="M19 1.73205L30.7224 8.5C31.3412 8.85727 31.7224 9.51752 31.7224 10.2321V23.768C31.7224 24.4825 31.3412 25.1427 30.7224 25.5L19 32.2679C18.3812 32.6252 17.6188 32.6252 17 32.2679L5.27757 25.5C4.65877 25.1427 4.27757 24.4825 4.27757 23.768V10.232C4.27757 9.51752 4.65877 8.85727 5.27757 8.5L17 1.73205C17.6188 1.37479 18.3812 1.37479 19 1.73205Z" fill="url(#paint0_linear_122_2051)" stroke="black" stroke-width="2"/>
<path d="M17.9984 24.3196C16.8564 24.3196 15.872 24.049 15.0453 23.5078C14.2186 22.9624 13.5815 22.1804 13.1341 21.1619C12.6866 20.1392 12.465 18.9098 12.4693 17.4737C12.4735 16.0376 12.6973 14.8189 13.1404 13.8175C13.5879 12.8118 14.2228 12.0469 15.0453 11.5227C15.872 10.9943 16.8564 10.7301 17.9984 10.7301C19.1404 10.7301 20.1248 10.9943 20.9515 11.5227C21.7825 12.0469 22.4217 12.8118 22.8691 13.8175C23.3166 14.8232 23.5382 16.0419 23.5339 17.4737C23.5339 18.9141 23.3102 20.1456 22.8627 21.1683C22.4153 22.1911 21.7782 22.973 20.9515 23.5142C20.1291 24.0511 19.1447 24.3196 17.9984 24.3196ZM17.9984 21.7308C18.6802 21.7308 19.2321 21.3835 19.6539 20.6889C20.0758 19.9901 20.2846 18.9183 20.2804 17.4737C20.2804 16.5277 20.1845 15.7479 19.9927 15.1342C19.801 14.5163 19.5346 14.0561 19.1937 13.7536C18.8528 13.451 18.4544 13.2997 17.9984 13.2997C17.3208 13.2997 16.7733 13.6428 16.3556 14.3288C15.938 15.0107 15.7271 16.0589 15.7228 17.4737C15.7186 18.4325 15.8102 19.2273 15.9977 19.858C16.1895 20.4886 16.4579 20.9595 16.8031 21.2706C17.1483 21.5774 17.5467 21.7308 17.9984 21.7308Z" fill="#040711"/>
<defs>
<linearGradient id="paint0_linear_122_2051" x1="18" y1="0" x2="18" y2="34" gradientUnits="userSpaceOnUse">
<stop stop-color="#9CA2AD"/>
<stop offset="1" stop-color="#6F7581"/>
</linearGradient>
</defs>
</svg>
