<svg width="36" height="36" viewBox="0 0 36 36" fill="none" xmlns="http://www.w3.org/2000/svg">
<path d="M16.5 2.86603C17.4282 2.33013 18.5718 2.33013 19.5 2.86603L31.2224 9.63397C32.1506 10.1699 32.7224 11.1603 32.7224 12.2321V25.7679C32.7224 26.8397 32.1506 27.8301 31.2224 28.366L19.5 35.134C18.5718 35.6699 17.4282 35.6699 16.5 35.134L4.77757 28.366C3.84936 27.8301 3.27757 26.8397 3.27757 25.7679V12.2321C3.27757 11.1603 3.84936 10.1699 4.77757 9.63397L16.5 2.86603Z" fill="black"/>
<path d="M19 1.73205L30.7224 8.5C31.3412 8.85727 31.7224 9.51752 31.7224 10.2321V23.768C31.7224 24.4825 31.3412 25.1427 30.7224 25.5L19 32.2679C18.3812 32.6252 17.6188 32.6252 17 32.2679L5.27757 25.5C4.65877 25.1427 4.27757 24.4825 4.27757 23.768V10.232C4.27757 9.51752 4.65877 8.85727 5.27757 8.5L17 1.73205C17.6188 1.37479 18.3812 1.37479 19 1.73205Z" fill="url(#paint0_linear_122_2090)" stroke="black" stroke-width="2"/>
<path d="M17.9417 24.179C16.9445 24.179 16.0603 24.0085 15.289 23.6676C14.5219 23.3224 13.9168 22.8473 13.4736 22.2422C13.0305 21.6371 12.8046 20.9403 12.7961 20.152H15.9793C15.9921 20.4375 16.0837 20.6911 16.2542 20.9126C16.4246 21.13 16.6569 21.3004 16.9509 21.424C17.2449 21.5476 17.5795 21.6094 17.9545 21.6094C18.3295 21.6094 18.6597 21.5433 18.9452 21.4112C19.235 21.2749 19.4608 21.0895 19.6228 20.8551C19.7847 20.6165 19.8635 20.3437 19.8593 20.0369C19.8635 19.7301 19.7762 19.4574 19.5972 19.2188C19.4182 18.9801 19.1647 18.7947 18.8366 18.6626C18.5127 18.5305 18.1292 18.4645 17.686 18.4645H16.414V16.2145H17.686C18.0738 16.2145 18.4147 16.1506 18.7087 16.0227C19.007 15.8949 19.2393 15.7159 19.4055 15.4858C19.5716 15.2514 19.6526 14.983 19.6483 14.6804C19.6526 14.3864 19.5823 14.1286 19.4374 13.907C19.2968 13.6811 19.0986 13.5064 18.843 13.3828C18.5915 13.2592 18.2996 13.1974 17.9672 13.1974C17.6178 13.1974 17.3003 13.2592 17.0148 13.3828C16.7336 13.5064 16.5099 13.6811 16.3437 13.907C16.1775 14.1328 16.0901 14.3949 16.0816 14.6932H13.0581C13.0667 13.9134 13.284 13.2273 13.7101 12.6349C14.1363 12.0384 14.7158 11.5717 15.4488 11.2351C16.186 10.8984 17.0255 10.7301 17.9672 10.7301C18.9047 10.7301 19.7293 10.8942 20.441 11.2223C21.1526 11.5504 21.7066 11.9979 22.1029 12.5646C22.4992 13.1271 22.6974 13.7642 22.6974 14.4759C22.7016 15.2131 22.4608 15.8203 21.9751 16.2976C21.4935 16.7749 20.8735 17.0689 20.115 17.1797V17.282C21.1292 17.4013 21.8941 17.7294 22.4097 18.2663C22.9296 18.8033 23.1874 19.4744 23.1832 20.2798C23.1832 21.0384 22.9594 21.7116 22.512 22.2997C22.0688 22.8835 21.4509 23.3437 20.6583 23.6804C19.8699 24.0128 18.9644 24.179 17.9417 24.179Z" fill="#040711"/>
<defs>
<linearGradient id="paint0_linear_122_2090" x1="18" y1="0" x2="18" y2="34" gradientUnits="userSpaceOnUse">
<stop stop-color="#9CA2AD"/>
<stop offset="1" stop-color="#6F7581"/>
</linearGradient>
</defs>
</svg>
