<svg width="36" height="36" viewBox="0 0 36 36" fill="none" xmlns="http://www.w3.org/2000/svg">
<path d="M16.5 2.86603C17.4282 2.33013 18.5718 2.33013 19.5 2.86603L31.2224 9.63397C32.1506 10.1699 32.7224 11.1603 32.7224 12.2321V25.7679C32.7224 26.8397 32.1506 27.8301 31.2224 28.366L19.5 35.134C18.5718 35.6699 17.4282 35.6699 16.5 35.134L4.77757 28.366C3.84936 27.8301 3.27757 26.8397 3.27757 25.7679V12.2321C3.27757 11.1603 3.84936 10.1699 4.77757 9.63397L16.5 2.86603Z" fill="black"/>
<path d="M19 1.73205L30.7224 8.5C31.3412 8.85727 31.7224 9.51752 31.7224 10.2321V23.768C31.7224 24.4825 31.3412 25.1427 30.7224 25.5L19 32.2679C18.3812 32.6252 17.6188 32.6252 17 32.2679L5.27757 25.5C4.65877 25.1427 4.27757 24.4825 4.27757 23.768V10.232C4.27757 9.51752 4.65877 8.85727 5.27757 8.5L17 1.73205C17.6188 1.37479 18.3812 1.37479 19 1.73205Z" fill="url(#paint0_linear_122_2026)" stroke="black" stroke-width="2"/>
<path d="M23.5834 17.3334C23.35 17.2 23.1084 17.0917 22.8667 17C23.1084 16.9084 23.35 16.8 23.5834 16.6667C25.1834 15.7417 26.075 14.0667 26.0834 12.3417C24.5917 11.4834 22.6917 11.4167 21.0834 12.3417C20.85 12.475 20.6334 12.6334 20.4334 12.7917C20.475 12.5334 20.5 12.2667 20.5 12C20.5 10.15 19.4917 8.54172 18 7.67505C16.5084 8.54172 15.5 10.15 15.5 12C15.5 12.2667 15.525 12.5334 15.5667 12.7917C15.3667 12.625 15.15 12.4667 14.9167 12.3334C13.3167 11.4084 11.4167 11.475 9.91669 12.3334C9.91669 14.0584 10.8084 15.7334 12.4167 16.6584C12.65 16.7917 12.8917 16.9 13.1334 16.9917C12.8917 17.0834 12.65 17.1917 12.4167 17.325C10.8167 18.25 9.92502 19.925 9.91669 21.65C11.4084 22.5084 13.3084 22.575 14.9167 21.65C15.15 21.5167 15.3667 21.3584 15.5667 21.2001C15.525 21.4667 15.5 21.7334 15.5 22C15.5 23.8501 16.5084 25.4584 18 26.3251C19.4917 25.4584 20.5 23.8501 20.5 22C20.5 21.7334 20.475 21.4667 20.4334 21.2084C20.6334 21.375 20.85 21.5251 21.0834 21.6584C22.6834 22.5834 24.5834 22.5167 26.0834 21.6584C26.075 19.9334 25.1834 18.2584 23.5834 17.3334Z" fill="black"/>
<defs>
<linearGradient id="paint0_linear_122_2026" x1="18" y1="0" x2="18" y2="34" gradientUnits="userSpaceOnUse">
<stop stop-color="#FACC15"/>
<stop offset="1" stop-color="#EAB308"/>
</linearGradient>
</defs>
</svg>
