<svg width="96" height="72" viewBox="0 0 96 72" fill="none" xmlns="http://www.w3.org/2000/svg">
<g filter="url(#filter0_i_122_2181)">
<path d="M83.1977 9.58866C82.0527 4.00692 77.1404 0 71.4424 0H12C5.37259 0 0 5.37258 0 12V60C0 66.6274 5.37258 72 12 72H81.2886C88.8853 72 94.5703 65.0304 93.0438 57.5887L83.1977 9.58866Z" fill="url(#paint0_radial_122_2181)"/>
</g>
<path d="M71.4424 3H12C7.02944 3 3 7.02944 3 12V60C3 64.9706 7.02943 69 12 69H81.2886C86.9861 69 91.2499 63.7728 90.105 58.1915L80.2589 10.1915C79.4001 6.00519 75.7159 3 71.4424 3Z" stroke="black" stroke-width="6"/>
<defs>
<filter id="filter0_i_122_2181" x="0" y="0" width="93.2928" height="72" filterUnits="userSpaceOnUse" color-interpolation-filters="sRGB">
<feFlood flood-opacity="0" result="BackgroundImageFix"/>
<feBlend mode="normal" in="SourceGraphic" in2="BackgroundImageFix" result="shape"/>
<feColorMatrix in="SourceAlpha" type="matrix" values="0 0 0 0 0 0 0 0 0 0 0 0 0 0 0 0 0 0 127 0" result="hardAlpha"/>
<feOffset dy="-9"/>
<feComposite in2="hardAlpha" operator="arithmetic" k2="-1" k3="1"/>
<feColorMatrix type="matrix" values="0 0 0 0 0 0 0 0 0 0 0 0 0 0 0 0 0 0 0.66 0"/>
<feBlend mode="overlay" in2="shape" result="effect1_innerShadow_122_2181"/>
</filter>
<radialGradient id="paint0_radial_122_2181" cx="0" cy="0" r="1" gradientUnits="userSpaceOnUse" gradientTransform="translate(48 36) rotate(36.8699) scale(60 57.6)">
<stop stop-color="#FB923C"/>
<stop offset="1" stop-color="#EA580C"/>
</radialGradient>
</defs>
</svg>
