<svg width="34" height="36" viewBox="0 0 34 36" fill="none" xmlns="http://www.w3.org/2000/svg">
<g filter="url(#filter0_d_58_2112)">
<path d="M15.5 0.866025C16.4282 0.330127 17.5718 0.330127 18.5 0.866025L30.2224 7.63398C31.1506 8.16987 31.7224 9.16025 31.7224 10.2321V23.768C31.7224 24.8397 31.1506 25.8301 30.2224 26.366L18.5 33.134C17.5718 33.6699 16.4282 33.6699 15.5 33.134L3.77757 26.366C2.84936 25.8301 2.27757 24.8397 2.27757 23.768V10.232C2.27757 9.16025 2.84936 8.16987 3.77757 7.63397L15.5 0.866025Z" fill="url(#paint0_linear_58_2112)"/>
<path d="M16 1.73205C16.6188 1.37479 17.3812 1.37479 18 1.73205L29.7224 8.5C30.3412 8.85727 30.7224 9.51752 30.7224 10.2321V23.768C30.7224 24.4825 30.3412 25.1427 29.7224 25.5L18 32.268C17.3812 32.6252 16.6188 32.6252 16 32.2679L4.27757 25.5C3.65877 25.1427 3.27757 24.4825 3.27757 23.768V10.232C3.27757 9.51752 3.65877 8.85727 4.27757 8.5L16 1.73205Z" stroke="black" stroke-width="2"/>
</g>
<path d="M17 8.66675C12.5583 12.4584 10.3333 15.7334 10.3333 18.5001C10.3333 22.6501 13.5 25.3334 17 25.3334C20.5 25.3334 23.6666 22.6501 23.6666 18.5001C23.6666 15.7334 21.4416 12.4584 17 8.66675Z" fill="#040711"/>
<defs>
<filter id="filter0_d_58_2112" x="2.27759" y="0.464111" width="29.4448" height="35.0718" filterUnits="userSpaceOnUse" color-interpolation-filters="sRGB">
<feFlood flood-opacity="0" result="BackgroundImageFix"/>
<feColorMatrix in="SourceAlpha" type="matrix" values="0 0 0 0 0 0 0 0 0 0 0 0 0 0 0 0 0 0 127 0" result="hardAlpha"/>
<feOffset dy="2"/>
<feComposite in2="hardAlpha" operator="out"/>
<feColorMatrix type="matrix" values="0 0 0 0 0 0 0 0 0 0 0 0 0 0 0 0 0 0 1 0"/>
<feBlend mode="normal" in2="BackgroundImageFix" result="effect1_dropShadow_58_2112"/>
<feBlend mode="normal" in="SourceGraphic" in2="effect1_dropShadow_58_2112" result="shape"/>
</filter>
<linearGradient id="paint0_linear_58_2112" x1="17" y1="0" x2="17" y2="34" gradientUnits="userSpaceOnUse">
<stop stop-color="#38BDF8"/>
<stop offset="1" stop-color="#0EA5E9"/>
</linearGradient>
</defs>
</svg>
