<svg width="20" height="26" viewBox="0 0 20 26" fill="none" xmlns="http://www.w3.org/2000/svg">
<path d="M19 11.119C19 6.31182 14.9257 2.5 10 2.5C5.07425 2.5 1 6.31182 1 11.119C1 13.1801 1.75923 15.0539 3 16.5254V22.1334C3 23.4864 4.31552 24.449 5.60516 24.0396L10 22.6444L14.3948 24.0396C15.6845 24.449 17 23.4864 17 22.1334V16.5254C18.2408 15.0539 19 13.1801 19 11.119Z" fill="black" stroke="black" stroke-width="2"/>
<path d="M19 10.119C19 5.31182 14.9257 1.5 10 1.5C5.07425 1.5 1 5.31182 1 10.119C1 12.1801 1.75923 14.0539 3 15.5254V21.1334C3 22.4864 4.31552 23.449 5.60516 23.0396L10 21.6444L14.3948 23.0396C15.6845 23.449 17 22.4864 17 21.1334V15.5254C18.2408 14.0539 19 12.1801 19 10.119Z" fill="url(#paint0_linear_9_168)" stroke="black" stroke-width="2"/>
<path d="M10 12.5343L6.90667 14.881L8.08 11.081L5 8.62765H8.78667L10 4.88098L11.2133 8.62765H15L11.9067 11.081L13.08 14.881L10 12.5343Z" fill="black"/>
<defs>
<linearGradient id="paint0_linear_9_168" x1="10" y1="2.5" x2="10" y2="22.5" gradientUnits="userSpaceOnUse">
<stop offset="0.0001" stop-color="#E879F9"/>
<stop offset="1" stop-color="#CF364C"/>
</linearGradient>
</defs>
</svg>
