<svg width="23" height="30" viewBox="0 0 23 30" fill="none" xmlns="http://www.w3.org/2000/svg">
<path d="M4.60194 27.9487L11.1429 25.7684L17.6838 27.9487L19 28.3874V27V18.5435C20.4215 16.8004 21.2857 14.5796 21.2857 12.1429C21.2857 6.53914 16.7466 2 11.1429 2C5.53914 2 1 6.53914 1 12.1429C1 14.5796 1.86423 16.8004 3.28571 18.5435V27V28.3874L4.60194 27.9487Z" fill="black" stroke="black" stroke-width="2"/>
<path d="M4.60194 26.9487L11.1429 24.7684L17.6838 26.9487L19 27.3874V26V17.5435C20.4215 15.8004 21.2857 13.5796 21.2857 11.1429C21.2857 5.53914 16.7466 1 11.1429 1C5.53914 1 1 5.53914 1 11.1429C1 13.5796 1.86423 15.8004 3.28571 17.5435V26V27.3874L4.60194 26.9487Z" fill="url(#paint0_linear_122_2174)" stroke="black" stroke-width="2"/>
<path d="M11 14.0412L7.288 16.8572L8.696 12.2972L5 9.35318H9.544L11 4.85718L12.456 9.35318H17L13.288 12.2972L14.696 16.8572L11 14.0412Z" fill="black"/>
<defs>
<linearGradient id="paint0_linear_122_2174" x1="11.1429" y1="2" x2="11.1429" y2="26" gradientUnits="userSpaceOnUse">
<stop offset="0.0001" stop-color="#E879F9"/>
<stop offset="1" stop-color="#CF364C"/>
</linearGradient>
</defs>
</svg>
