<svg width="34" height="36" viewBox="0 0 34 36" fill="none" xmlns="http://www.w3.org/2000/svg">
<path d="M15.5 2.86603C16.4282 2.33013 17.5718 2.33013 18.5 2.86603L30.2224 9.63397C31.1506 10.1699 31.7224 11.1603 31.7224 12.2321V25.7679C31.7224 26.8397 31.1506 27.8301 30.2224 28.366L18.5 35.134C17.5718 35.6699 16.4282 35.6699 15.5 35.134L3.77757 28.366C2.84936 27.8301 2.27757 26.8397 2.27757 25.7679V12.2321C2.27757 11.1603 2.84936 10.1699 3.77757 9.63397L15.5 2.86603Z" fill="black"/>
<path d="M18 1.73205L29.7224 8.5C30.3412 8.85727 30.7224 9.51752 30.7224 10.2321V23.768C30.7224 24.4825 30.3412 25.1427 29.7224 25.5L18 32.2679C17.3812 32.6252 16.6188 32.6252 16 32.2679L4.27757 25.5C3.65877 25.1427 3.27757 24.4825 3.27757 23.768V10.232C3.27757 9.51752 3.65877 8.85727 4.27757 8.5L16 1.73205C16.6188 1.37479 17.3812 1.37479 18 1.73205Z" fill="url(#paint0_linear_96_11886)" stroke="black" stroke-width="2"/>
<path d="M16.4083 12.875L23.9083 10.0917L21.125 17.5917L16.4083 12.875ZM25.25 24.075L9.925 8.75L8.75 9.93333L12.975 14.1583L8.90833 15.6667V16.8417L14.8 19.2L17.1583 25.0917H18.3333L19.8417 21.025L24.0667 25.25L25.25 24.075Z" fill="black"/>
<defs>
<linearGradient id="paint0_linear_96_11886" x1="17" y1="0" x2="17" y2="34" gradientUnits="userSpaceOnUse">
<stop stop-color="#A5B4FC"/>
<stop offset="1" stop-color="#6366F1"/>
</linearGradient>
</defs>
</svg>
