<svg width="34" height="36" viewBox="0 0 34 36" fill="none" xmlns="http://www.w3.org/2000/svg">
<path d="M15.5 2.86603C16.4282 2.33013 17.5718 2.33013 18.5 2.86603L30.2224 9.63397C31.1506 10.1699 31.7224 11.1603 31.7224 12.2321V25.7679C31.7224 26.8397 31.1506 27.8301 30.2224 28.366L18.5 35.134C17.5718 35.6699 16.4282 35.6699 15.5 35.134L3.77757 28.366C2.84936 27.8301 2.27757 26.8397 2.27757 25.7679V12.2321C2.27757 11.1603 2.84936 10.1699 3.77757 9.63397L15.5 2.86603Z" fill="black"/>
<path d="M18 1.73205L29.7224 8.5C30.3412 8.85727 30.7224 9.51752 30.7224 10.2321V23.768C30.7224 24.4825 30.3412 25.1427 29.7224 25.5L18 32.2679C17.3812 32.6252 16.6188 32.6252 16 32.2679L4.27757 25.5C3.65877 25.1427 3.27757 24.4825 3.27757 23.768V10.232C3.27757 9.51752 3.65877 8.85727 4.27757 8.5L16 1.73205C16.6188 1.37479 17.3812 1.37479 18 1.73205Z" fill="url(#paint0_linear_96_11881)" stroke="black" stroke-width="2"/>
<path d="M10.5118 22H9.88351L10.5118 17.3333H8.31288C7.76002 17.3333 8.10556 16.8333 8.11812 16.8133C8.92857 15.2933 10.1474 13.0267 11.7745 10H12.4028L11.7745 14.6667H13.9797C14.231 14.6667 14.3692 14.7933 14.231 15.1067C11.7494 19.7 10.5118 22 10.5118 22Z" fill="black"/>
<path d="M16.7974 22H16.1692L16.7974 17.3333H14.5985C14.0457 17.3333 14.3912 16.8333 14.4038 16.8133C15.2142 15.2933 16.433 13.0267 18.0602 10H18.6884L18.0602 14.6667H20.2653C20.5166 14.6667 20.6549 14.7933 20.5166 15.1067C18.0351 19.7 16.7974 22 16.7974 22Z" fill="black"/>
<path d="M23.0833 22H22.455L23.0833 17.3333H20.8844C20.3316 17.3333 20.6771 16.8333 20.6897 16.8133C21.5001 15.2933 22.7189 13.0267 24.3461 10H24.9743L24.3461 14.6667H26.5512C26.8025 14.6667 26.9407 14.7933 26.8025 15.1067C24.3209 19.7 23.0833 22 23.0833 22Z" fill="black"/>
<defs>
<linearGradient id="paint0_linear_96_11881" x1="17" y1="0" x2="17" y2="34" gradientUnits="userSpaceOnUse">
<stop stop-color="#FDBA74"/>
<stop offset="1" stop-color="#F43F5E"/>
</linearGradient>
</defs>
</svg>
