<svg width="17" height="25" viewBox="0 0 17 25" fill="none" xmlns="http://www.w3.org/2000/svg">
<g filter="url(#filter0_di_26_462)">
<path d="M7.16954 22.5H7.4598L7.60374 22.2479L7.16954 22L7.60376 22.2479L7.60384 22.2478L7.60413 22.2472L7.60533 22.2451L7.61014 22.2367L7.62936 22.2031L7.70631 22.0684L8.01422 21.5295C8.28797 21.0506 8.6987 20.3323 9.24658 19.3747C10.3423 17.4595 11.9867 14.5874 14.1811 10.7598L14.1914 10.7418L14.2002 10.7231C14.3466 10.4103 14.4387 9.99845 14.1874 9.65396C13.954 9.33406 13.5658 9.27778 13.3029 9.27778H9.97938L11.009 2.07071L11.0905 1.5H10.514H9.40287H9.11247L8.96857 1.75224L8.70111 2.22107C5.96569 7.01596 3.90311 10.6314 2.51411 13.0862C2.47672 13.1384 2.28707 13.4204 2.23947 13.7239C2.20907 13.9177 2.22226 14.2133 2.46037 14.4477C2.67866 14.6627 2.9854 14.7222 3.28065 14.7222H6.59303L5.56345 21.9293L5.48192 22.5H6.05843H7.16954Z" fill="url(#paint0_linear_26_462)" stroke="black"/>
</g>
<defs>
<filter id="filter0_di_26_462" x="0.285706" y="0" width="16" height="26" filterUnits="userSpaceOnUse" color-interpolation-filters="sRGB">
<feFlood flood-opacity="0" result="BackgroundImageFix"/>
<feColorMatrix in="SourceAlpha" type="matrix" values="0 0 0 0 0 0 0 0 0 0 0 0 0 0 0 0 0 0 127 0" result="hardAlpha"/>
<feOffset dy="2"/>
<feComposite in2="hardAlpha" operator="out"/>
<feColorMatrix type="matrix" values="0 0 0 0 0 0 0 0 0 0 0 0 0 0 0 0 0 0 1 0"/>
<feBlend mode="normal" in2="BackgroundImageFix" result="effect1_dropShadow_26_462"/>
<feBlend mode="normal" in="SourceGraphic" in2="effect1_dropShadow_26_462" result="shape"/>
<feColorMatrix in="SourceAlpha" type="matrix" values="0 0 0 0 0 0 0 0 0 0 0 0 0 0 0 0 0 0 127 0" result="hardAlpha"/>
<feOffset/>
<feGaussianBlur stdDeviation="3"/>
<feComposite in2="hardAlpha" operator="arithmetic" k2="-1" k3="1"/>
<feColorMatrix type="matrix" values="0 0 0 0 0.956863 0 0 0 0 0.247059 0 0 0 0 0.368627 0 0 0 1 0"/>
<feBlend mode="multiply" in2="shape" result="effect2_innerShadow_26_462"/>
</filter>
<linearGradient id="paint0_linear_26_462" x1="8.28569" y1="2" x2="8.28569" y2="22" gradientUnits="userSpaceOnUse">
<stop stop-color="#FDBA74"/>
<stop offset="1" stop-color="#F43F5E"/>
</linearGradient>
</defs>
</svg>
