<svg width="14" height="22" viewBox="0 0 14 22" fill="none" xmlns="http://www.w3.org/2000/svg">
<path d="M5.44224 21.5H5.73251L5.87644 21.2479L5.44224 21L5.87647 21.2479L5.87654 21.2478L5.87684 21.2472L5.87804 21.2451L5.88284 21.2367L5.90207 21.2031L5.97901 21.0684L6.28693 20.5295C6.56067 20.0506 6.9714 19.3323 7.51928 18.3747C8.61505 16.4595 10.2594 13.5874 12.4538 9.75979L12.4641 9.74183L12.4729 9.72308C12.6193 9.41026 12.7114 8.99845 12.4601 8.65396C12.2268 8.33406 11.8385 8.27778 11.5756 8.27778H8.25208L9.28166 1.07071L9.36319 0.5H8.78669H7.67558H7.38518L7.24128 0.75224L6.97384 1.22102C4.23841 6.01594 2.17582 9.63143 0.786818 12.0862C0.749428 12.1384 0.559774 12.4204 0.512171 12.7239C0.481779 12.9177 0.494964 13.2133 0.733077 13.4477C0.951365 13.6627 1.25811 13.7222 1.55335 13.7222H4.86574L3.83616 20.9293L3.75463 21.5H4.33113H5.44224Z" fill="black" stroke="black"/>
<path d="M5.44224 21.5H5.73251L5.87644 21.2479L5.44224 21L5.87647 21.2479L5.87654 21.2478L5.87684 21.2472L5.87804 21.2451L5.88284 21.2367L5.90207 21.2031L5.97901 21.0684L6.28693 20.5295C6.56067 20.0506 6.9714 19.3323 7.51928 18.3747C8.61505 16.4595 10.2594 13.5874 12.4538 9.75979L12.4641 9.74183L12.4729 9.72308C12.6193 9.41026 12.7114 8.99845 12.4601 8.65396C12.2267 8.33406 11.8385 8.27778 11.5756 8.27778H8.25208L9.28166 1.07071L9.36319 0.5H8.78669H7.67558H7.38518L7.24128 0.75224L6.97438 1.22008C4.23868 6.01546 2.17591 9.63127 0.786818 12.0862C0.749429 12.1384 0.559774 12.4204 0.512171 12.7239C0.481779 12.9177 0.494964 13.2133 0.733077 13.4477C0.951365 13.6627 1.25811 13.7222 1.55335 13.7222H4.86574L3.83616 20.9293L3.75463 21.5H4.33113H5.44224Z" fill="url(#paint0_linear_122_2163)" stroke="black"/>
<defs>
<linearGradient id="paint0_linear_122_2163" x1="6.5584" y1="1" x2="6.5584" y2="21" gradientUnits="userSpaceOnUse">
<stop stop-color="#FDBA74"/>
<stop offset="1" stop-color="#F43F5E"/>
</linearGradient>
</defs>
</svg>
