<svg width="14" height="24" viewBox="0 0 14 24" fill="none" xmlns="http://www.w3.org/2000/svg">
<path d="M5.89557 23.5H6.19431L6.33587 23.2369L5.89557 23L6.3359 23.2369L6.33597 23.2367L6.33627 23.2362L6.33745 23.234L6.34221 23.2252L6.36123 23.1898L6.43737 23.0484L6.74205 22.4826C7.01293 21.9797 7.41934 21.2255 7.96147 20.22C9.04572 18.2091 10.6728 15.1934 12.8442 11.1743L12.8536 11.1567L12.8617 11.1385C13.0046 10.8145 13.0879 10.4059 12.852 10.0628C12.6233 9.73005 12.234 9.66667 11.9645 9.66667H8.67727L9.70041 2.06671L9.7767 1.5H9.20488H8.10544H7.80657L7.66505 1.76324L7.40043 2.25546C4.69307 7.29135 2.65185 11.0882 1.27747 13.6657C1.24154 13.719 1.05717 14.009 1.01144 14.3183C0.983234 14.5092 0.993492 14.8032 1.22178 15.0418C1.43852 15.2682 1.74827 15.3333 2.04754 15.3333H5.32375L4.30061 22.9333L4.22431 23.5H4.79613H5.89557Z" fill="black" stroke="black"/>
<path d="M5.89557 22.5H6.19431L6.33587 22.2369L5.89557 22L6.3359 22.2369L6.33597 22.2367L6.33627 22.2362L6.33745 22.234L6.34221 22.2252L6.36123 22.1898L6.43737 22.0484L6.74205 21.4826C7.01293 20.9797 7.41934 20.2255 7.96147 19.22C9.04572 17.2091 10.6728 14.1934 12.8442 10.1743L12.8536 10.1567L12.8617 10.1385C13.0046 9.81451 13.0879 9.40591 12.852 9.06281C12.6233 8.73005 12.234 8.66667 11.9645 8.66667H8.67727L9.70041 1.06671L9.7767 0.5H9.20488H8.10544H7.80657L7.66505 0.763241L7.40051 1.25531C4.69311 6.29127 2.65186 10.0881 1.27747 12.6657C1.24154 12.719 1.05717 13.009 1.01144 13.3183C0.983234 13.5092 0.993492 13.8032 1.22178 14.0418C1.43852 14.2682 1.74827 14.3333 2.04754 14.3333H5.32375L4.30061 21.9333L4.22431 22.5H4.79613H5.89557Z" fill="url(#paint0_linear_9_167)" stroke="black"/>
<defs>
<linearGradient id="paint0_linear_9_167" x1="7" y1="1" x2="7" y2="22" gradientUnits="userSpaceOnUse">
<stop stop-color="#FDBA74"/>
<stop offset="1" stop-color="#F43F5E"/>
</linearGradient>
</defs>
</svg>
