<svg width="34" height="36" viewBox="0 0 34 36" fill="none" xmlns="http://www.w3.org/2000/svg">
<path d="M15.5 2.86603C16.4282 2.33013 17.5718 2.33013 18.5 2.86603L30.2224 9.63397C31.1506 10.1699 31.7224 11.1603 31.7224 12.2321V25.7679C31.7224 26.8397 31.1506 27.8301 30.2224 28.366L18.5 35.134C17.5718 35.6699 16.4282 35.6699 15.5 35.134L3.77757 28.366C2.84936 27.8301 2.27757 26.8397 2.27757 25.7679V12.2321C2.27757 11.1603 2.84936 10.1699 3.77757 9.63397L15.5 2.86603Z" fill="black"/>
<path d="M18 1.73205L29.7224 8.5C30.3412 8.85727 30.7224 9.51752 30.7224 10.2321V23.768C30.7224 24.4825 30.3412 25.1427 29.7224 25.5L18 32.2679C17.3812 32.6252 16.6188 32.6252 16 32.2679L4.27757 25.5C3.65877 25.1427 3.27757 24.4825 3.27757 23.768V10.232C3.27757 9.51752 3.65877 8.85727 4.27757 8.5L16 1.73205C16.6188 1.37479 17.3812 1.37479 18 1.73205Z" fill="url(#paint0_linear_96_11885)" stroke="black" stroke-width="2"/>
<path d="M21.9999 13.0833H21.1666V11.4167C21.1666 9.11667 19.2999 7.25 16.9999 7.25C14.6999 7.25 12.8333 9.11667 12.8333 11.4167H14.4166C14.4166 9.99167 15.5749 8.83333 16.9999 8.83333C18.4249 8.83333 19.5833 9.99167 19.5833 11.4167V13.0833H11.9999C11.0833 13.0833 10.3333 13.8333 10.3333 14.75V23.0833C10.3333 24 11.0833 24.75 11.9999 24.75H21.9999C22.9166 24.75 23.6666 24 23.6666 23.0833V14.75C23.6666 13.8333 22.9166 13.0833 21.9999 13.0833Z" fill="black"/>
<path d="M18.6666 18.9167C18.6666 19.8333 17.9166 20.5833 16.9999 20.5833C16.0833 20.5833 15.3333 19.8333 15.3333 18.9167C15.3333 18 16.0833 17.25 16.9999 17.25C17.9166 17.25 18.6666 18 18.6666 18.9167Z" fill="black"/>
<defs>
<linearGradient id="paint0_linear_96_11885" x1="17" y1="34" x2="17" y2="-8.44399e-08" gradientUnits="userSpaceOnUse">
<stop stop-color="#16A34A"/>
<stop offset="1" stop-color="#4ADE80"/>
</linearGradient>
</defs>
</svg>
