<svg width="24" height="24" viewBox="0 0 24 24" fill="none" xmlns="http://www.w3.org/2000/svg">
<rect x="1" y="1" width="22" height="22" rx="11" fill="url(#paint0_linear_9_164)"/>
<rect x="1" y="1" width="22" height="22" rx="11" stroke="black" stroke-width="2"/>
<path d="M7.5 17H16.5V9.5H7.5V17ZM12 11.75C12.825 11.75 13.5 12.425 13.5 13.25C13.5 14.075 12.825 14.75 12 14.75C11.175 14.75 10.5 14.075 10.5 13.25C10.5 12.425 11.175 11.75 12 11.75Z" fill="black"/>
<path d="M16.5 8H15.75V6.5C15.75 4.43 14.07 2.75 12 2.75C9.93 2.75 8.25 4.43 8.25 6.5H9.75C9.75 5.255 10.755 4.25 12 4.25C13.245 4.25 14.25 5.255 14.25 6.5V8H7.5C6.675 8 6 8.675 6 9.5V17C6 17.825 6.675 18.5 7.5 18.5H16.5C17.325 18.5 18 17.825 18 17V9.5C18 8.675 17.325 8 16.5 8Z" fill="black"/>
<defs>
<linearGradient id="paint0_linear_9_164" x1="12" y1="24" x2="12" y2="-5.96046e-08" gradientUnits="userSpaceOnUse">
<stop stop-color="#16A34A"/>
<stop offset="1" stop-color="#4ADE80"/>
</linearGradient>
</defs>
</svg>
