<svg width="34" height="36" viewBox="0 0 34 36" fill="none" xmlns="http://www.w3.org/2000/svg">
<g filter="url(#filter0_d_338_1259)">
<rect width="34" height="34" rx="17" fill="#9151AC"/>
<path d="M21.7667 14.25C20.2451 11.6192 16.8717 10.7208 14.25 12.2333C11.8025 13.645 10.8584 16.67 11.9584 19.2C12.0409 19.3833 12.1325 19.5667 12.2334 19.75C13.755 22.3808 17.1192 23.2792 19.75 21.7667C22.1975 20.355 23.1417 17.33 22.0417 14.8C21.9592 14.6167 21.8676 14.4333 21.7667 14.25ZM17 20.6667C14.9742 20.6667 13.3334 19.0258 13.3334 17C13.3334 14.9742 14.9742 13.3333 17 13.3333C19.0259 13.3333 20.6667 14.9742 20.6667 17C20.6667 19.0258 19.0259 20.6667 17 20.6667Z" fill="black"/>
<path d="M17 13.3333C14.9742 13.3333 13.3334 14.9742 13.3334 17C13.3334 19.0258 14.9742 20.6667 17 20.6667C19.0259 20.6667 20.6667 19.0258 20.6667 17C20.6667 14.9742 19.0259 13.3333 17 13.3333ZM17 18.8333C15.9917 18.8333 15.1667 18.0083 15.1667 17C15.1667 15.9917 15.9917 15.1667 17 15.1667C18.0084 15.1667 18.8334 15.9917 18.8334 17C18.8334 18.0083 18.0084 18.8333 17 18.8333Z" fill="black"/>
<path d="M23.3525 13.3333C21.3267 9.83168 16.835 8.63084 13.3334 10.6475C12.0409 11.3992 11.06 12.4808 10.4367 13.7367C10.3175 11.72 10.6384 9.70334 11.3717 7.83334H9.42837C8.01671 11.9492 8.31004 16.615 10.6475 20.6667C11.6559 22.4175 13.2875 23.5908 15.1025 24.0767C16.9175 24.5625 18.9159 24.3608 20.6667 23.3525C21.9592 22.6008 22.94 21.5192 23.5634 20.2633C23.6825 22.28 23.3709 24.2967 22.6375 26.1667H24.5717C25.9742 22.0508 25.69 17.385 23.3525 13.3333ZM19.75 21.7667C17.1192 23.2792 13.755 22.3808 12.2334 19.75C12.1325 19.5667 12.0409 19.3833 11.9584 19.2C10.8584 16.67 11.8025 13.645 14.25 12.2333C16.8717 10.7208 20.245 11.6192 21.7667 14.25C21.8675 14.4333 21.9592 14.6167 22.0417 14.8C23.1417 17.33 22.1975 20.355 19.75 21.7667Z" fill="black"/>
</g>
<defs>
<filter id="filter0_d_338_1259" x="0" y="0" width="34" height="36" filterUnits="userSpaceOnUse" color-interpolation-filters="sRGB">
<feFlood flood-opacity="0" result="BackgroundImageFix"/>
<feColorMatrix in="SourceAlpha" type="matrix" values="0 0 0 0 0 0 0 0 0 0 0 0 0 0 0 0 0 0 127 0" result="hardAlpha"/>
<feOffset dy="2"/>
<feComposite in2="hardAlpha" operator="out"/>
<feColorMatrix type="matrix" values="0 0 0 0 0 0 0 0 0 0 0 0 0 0 0 0 0 0 1 0"/>
<feBlend mode="normal" in2="BackgroundImageFix" result="effect1_dropShadow_338_1259"/>
<feBlend mode="normal" in="SourceGraphic" in2="effect1_dropShadow_338_1259" result="shape"/>
</filter>
</defs>
</svg>
